<svg width="470" height="440" viewBox="0 0 470 440" fill="none" xmlns="http://www.w3.org/2000/svg">
<g opacity="0.2">
<path opacity="0.4" d="M405.294 167.08L369.942 146.945L405.282 126.81L405.599 126.988L440.634 146.945L405.294 167.08ZM372.45 146.945L405.294 165.653L438.137 146.945L405.294 128.237L372.45 146.945Z" fill="#B3E0FF"/>
<path opacity="0.4" d="M337.098 167.08L301.758 146.945L337.098 126.81L372.439 146.945L337.098 167.08ZM304.255 146.945L337.098 165.653L369.942 146.945L337.098 128.237L304.255 146.945Z" fill="#B3E0FF"/>
<path opacity="0.4" d="M371.196 186.513L370.88 186.335L335.845 166.378L371.185 146.243L406.537 166.378L371.196 186.513ZM338.353 166.367L371.196 185.075L404.04 166.367L371.196 147.659L338.353 166.367Z" fill="#B3E0FF"/>
<path opacity="0.4" d="M405.294 205.935L404.977 205.756L369.942 185.799L405.282 165.664L405.599 165.843L440.634 185.799L405.294 205.935ZM372.45 185.799L405.294 204.507L438.137 185.799L405.294 167.091L372.45 185.799Z" fill="#B3E0FF"/>
<path opacity="0.4" d="M268.915 167.08L268.598 166.902L233.563 146.945L268.903 126.81L269.22 126.988L304.255 146.945L268.915 167.08ZM236.071 146.945L268.915 165.653L301.758 146.945L268.915 128.237L236.071 146.945Z" fill="#B3E0FF"/>
<path opacity="0.4" d="M303.012 186.513L267.672 166.378L303.012 146.243L338.353 166.378L303.012 186.513ZM270.169 166.367L303.012 185.075L335.856 166.367L303.012 147.659L270.169 166.367Z" fill="#B3E0FF"/>
<path opacity="0.4" d="M337.099 205.935L336.782 205.756L301.747 185.799L337.087 165.664L337.404 165.843L372.439 185.799L337.099 205.935ZM304.255 185.799L337.099 204.507L369.942 185.799L337.099 167.091L304.255 185.799Z" fill="#B3E0FF"/>
<path opacity="0.4" d="M371.196 225.356L370.88 225.178L335.845 205.221L371.185 185.086L371.501 185.264L406.537 205.221L371.196 225.356ZM338.353 205.221L371.196 223.929L404.04 205.221L371.196 186.513L338.353 205.221Z" fill="#B3E0FF"/>
<path opacity="0.4" d="M405.294 244.778L404.977 244.6L369.942 224.643L405.282 204.508L440.634 224.643L405.294 244.778ZM372.45 224.643L405.294 243.351L438.137 224.643L405.294 205.935L372.45 224.643Z" fill="#B3E0FF"/>
<path opacity="0.4" d="M200.719 167.08L200.403 166.902L165.368 146.945L200.708 126.81L201.024 126.988L236.06 146.945L200.719 167.08ZM167.876 146.945L200.719 165.653L233.563 146.945L200.719 128.237L167.876 146.945Z" fill="#B3E0FF"/>
<path opacity="0.4" d="M234.817 186.502L234.501 186.323L199.465 166.367L234.806 146.231L235.122 146.41L270.157 166.367L234.817 186.502ZM201.974 166.367L234.817 185.075L267.661 166.367L234.817 147.659L201.974 166.367Z" fill="#B3E0FF"/>
<path opacity="0.4" d="M268.915 205.935L268.598 205.756L233.563 185.799L268.903 165.664L304.244 185.799L268.915 205.935ZM236.071 185.788L268.915 204.496L301.758 185.788L268.915 167.08L236.071 185.788Z" fill="#B3E0FF"/>
<path opacity="0.4" d="M303.012 225.356L267.672 205.221L303.012 185.086L303.329 185.264L338.364 205.221L303.012 225.356ZM270.169 205.221L303.012 223.929L335.856 205.221L303.012 186.513L270.169 205.221Z" fill="#B3E0FF"/>
<path opacity="0.4" d="M337.099 244.778L336.782 244.6L301.747 224.643L337.087 204.508L337.404 204.686L372.439 224.643L337.099 244.778ZM304.255 224.643L337.099 243.351L369.942 224.643L337.099 205.935L304.255 224.643Z" fill="#B3E0FF"/>
<path opacity="0.4" d="M371.196 264.211L370.88 264.032L335.845 244.075L371.185 223.94L371.501 224.119L406.537 244.075L371.196 264.211ZM338.353 244.064L371.196 262.772L404.04 244.064L371.196 225.356L338.353 244.064Z" fill="#B3E0FF"/>
<path opacity="0.4" d="M405.294 283.632L404.977 283.454L369.942 263.497L405.282 243.362L405.599 243.54L440.634 263.497L405.294 283.632ZM372.45 263.497L405.294 282.205L438.137 263.497L405.294 244.789L372.45 263.497Z" fill="#B3E0FF"/>
<path opacity="0.4" d="M132.536 167.08L132.219 166.902L97.1841 146.945L132.524 126.81L132.841 126.988L167.876 146.945L132.536 167.08ZM99.6923 146.945L132.536 165.653L165.379 146.945L132.536 128.237L99.6923 146.945Z" fill="#B3E0FF"/>
<path opacity="0.4" d="M166.633 186.502L131.282 166.367L166.622 146.231L166.938 146.41L201.974 166.367L166.633 186.502ZM133.79 166.367L166.633 185.075L199.477 166.367L166.633 147.659L133.79 166.367Z" fill="#B3E0FF"/>
<path opacity="0.4" d="M200.731 205.935L200.414 205.756L165.379 185.799L200.719 165.664L201.036 165.843L236.071 185.799L200.731 205.935ZM167.876 185.788L200.719 204.496L233.563 185.788L200.719 167.08L167.876 185.788Z" fill="#B3E0FF"/>
<path opacity="0.4" d="M234.817 225.356L234.501 225.178L199.465 205.221L234.806 185.086L235.122 185.264L270.157 205.221L234.817 225.356ZM201.974 205.221L234.817 223.929L267.661 205.221L234.817 186.513L201.974 205.221Z" fill="#B3E0FF"/>
<path opacity="0.4" d="M268.915 244.778L233.574 224.643L268.915 204.508L304.255 224.643L268.915 244.778ZM236.071 224.643L268.915 243.351L301.758 224.643L268.915 205.935L236.071 224.643Z" fill="#B3E0FF"/>
<path opacity="0.4" d="M303.013 264.211L302.696 264.032L267.661 244.075L303.002 223.94L303.318 224.119L338.353 244.075L303.013 264.211ZM270.169 244.064L303.013 262.772L335.856 244.064L303.013 225.356L270.169 244.064Z" fill="#B3E0FF"/>
<path opacity="0.4" d="M337.099 283.632L301.747 263.497L337.087 243.362L337.404 243.54L372.439 263.497L337.099 283.632ZM304.255 263.497L337.099 282.205L369.942 263.497L337.099 244.789L304.255 263.497Z" fill="#B3E0FF"/>
<path opacity="0.4" d="M371.196 303.054L370.88 302.876L335.845 282.919L371.185 262.784L371.501 262.962L406.537 282.919L371.196 303.054ZM338.353 282.919L371.196 301.627L404.04 282.919L371.196 264.211L338.353 282.919Z" fill="#B3E0FF"/>
<path opacity="0.4" d="M405.294 322.487L404.977 322.308L369.942 302.352L405.282 282.216L405.599 282.395L440.634 302.352L405.294 322.487ZM372.45 302.34L405.294 321.048L438.137 302.34L405.294 283.632L372.45 302.34Z" fill="#B3E0FF"/>
<path opacity="0.4" d="M64.3517 167.08L64.0353 166.902L29 146.945L64.3404 126.81L64.6567 126.988L99.6921 146.945L64.3517 167.08ZM31.4969 146.945L64.3404 165.653L97.1839 146.945L64.3404 128.237L31.4969 146.945Z" fill="#B3E0FF"/>
<path opacity="0.4" d="M98.4381 186.502L98.1218 186.323L63.0864 166.367L98.4268 146.231L98.7432 146.41L133.778 166.367L98.4381 186.502ZM65.5946 166.367L98.4381 185.075L131.282 166.367L98.4381 147.659L65.5946 166.367Z" fill="#B3E0FF"/>
<path opacity="0.4" d="M132.536 205.935L132.219 205.756L97.1841 185.799L132.524 165.664L167.876 185.799L132.536 205.935ZM99.6923 185.788L132.536 204.496L165.379 185.788L132.536 167.08L99.6923 185.788Z" fill="#B3E0FF"/>
<path opacity="0.4" d="M166.633 225.356L131.282 205.221L166.622 185.086L166.938 185.264L201.974 205.221L166.633 225.356ZM133.79 205.221L166.633 223.929L199.477 205.221L166.633 186.513L133.79 205.221Z" fill="#B3E0FF"/>
<path opacity="0.4" d="M200.731 244.778L200.414 244.6L165.379 224.643L200.719 204.508L201.036 204.686L236.071 224.643L200.731 244.778ZM167.887 224.643L200.731 243.351L233.574 224.643L200.731 205.935L167.887 224.643Z" fill="#B3E0FF"/>
<path opacity="0.4" d="M234.817 264.211L199.477 244.075L234.817 223.94L270.157 244.075L234.817 264.211ZM201.973 244.064L234.817 262.772L267.66 244.064L234.817 225.356L201.973 244.064Z" fill="#B3E0FF"/>
<path opacity="0.4" d="M268.915 283.632L268.598 283.454L233.563 263.497L268.903 243.362L269.22 243.54L304.255 263.497L268.915 283.632ZM236.071 263.497L268.915 282.205L301.758 263.497L268.915 244.789L236.071 263.497Z" fill="#B3E0FF"/>
<path opacity="0.4" d="M303.013 303.054L302.696 302.876L267.661 282.919L303.002 262.784L338.353 282.919L303.013 303.054ZM270.169 282.919L303.013 301.627L335.856 282.919L303.013 264.211L270.169 282.919Z" fill="#B3E0FF"/>
<path opacity="0.4" d="M337.11 322.487L301.758 302.352L337.098 282.216L337.415 282.395L372.45 302.352L337.11 322.487ZM304.266 302.34L337.11 321.048L369.953 302.34L337.11 283.632L304.266 302.34Z" fill="#B3E0FF"/>
<path opacity="0.4" d="M371.196 341.908L370.88 341.73L335.845 321.773L371.185 301.638L371.501 301.816L406.537 321.773L371.196 341.908ZM338.353 321.773L371.196 340.481L404.04 321.773L371.196 303.065L338.353 321.773Z" fill="#B3E0FF"/>
<path opacity="0.4" d="M405.294 361.33L404.977 361.152L369.942 341.195L405.282 321.06L405.599 321.238L440.634 341.195L405.294 361.33ZM372.45 341.195L405.294 359.903L438.137 341.195L405.294 322.487L372.45 341.195Z" fill="#B3E0FF"/>
<path opacity="0.4" d="M64.3517 205.935L64.0353 205.756L29 185.799L64.3404 165.664L64.6567 165.843L99.6921 185.799L64.3517 205.935ZM31.5082 185.788L64.3517 204.496L97.1952 185.788L64.3517 167.08L31.5082 185.788Z" fill="#B3E0FF"/>
<path opacity="0.4" d="M98.4381 225.356L98.1218 225.178L63.0864 205.221L98.4268 185.086L98.7432 185.264L133.778 205.221L98.4381 225.356ZM65.5946 205.221L98.4381 223.929L131.282 205.221L98.4381 186.513L65.5946 205.221Z" fill="#B3E0FF"/>
<path opacity="0.4" d="M132.536 244.778L132.219 244.6L97.1841 224.643L132.524 204.508L167.876 224.643L132.536 244.778ZM99.6923 224.643L132.536 243.351L165.379 224.643L132.536 205.935L99.6923 224.643Z" fill="#B3E0FF"/>
<path opacity="0.4" d="M166.633 264.199L166.317 264.021L131.282 244.064L166.622 223.929L166.938 224.108L201.974 244.064L166.633 264.199ZM133.79 244.064L166.633 262.772L199.477 244.064L166.633 225.356L133.79 244.064Z" fill="#B3E0FF"/>
<path opacity="0.4" d="M200.731 283.632L165.379 263.497L200.719 243.362L236.06 263.497L200.731 283.632ZM167.887 263.497L200.731 282.205L233.574 263.497L200.731 244.789L167.887 263.497Z" fill="#B3E0FF"/>
<path opacity="0.4" d="M234.817 303.054L199.477 282.919L234.817 262.784L235.133 262.962L270.169 282.919L234.817 303.054ZM201.973 282.919L234.817 301.627L267.66 282.919L234.817 264.211L201.973 282.919Z" fill="#B3E0FF"/>
<path opacity="0.4" d="M268.915 322.476L268.598 322.297L233.563 302.34L268.903 282.205L269.22 282.384L304.255 302.34L268.915 322.476ZM236.071 302.34L268.915 321.048L301.758 302.34L268.915 283.632L236.071 302.34Z" fill="#B3E0FF"/>
<path opacity="0.4" d="M303.013 341.908L302.696 341.73L267.661 321.773L303.002 301.638L338.353 321.773L303.013 341.908ZM270.169 321.762L303.013 340.47L335.856 321.762L303.013 303.054L270.169 321.762Z" fill="#B3E0FF"/>
<path opacity="0.4" d="M337.11 361.33L336.793 361.152L301.758 341.195L337.098 321.06L337.415 321.238L372.45 341.195L337.11 361.33ZM304.266 341.195L337.11 359.903L369.953 341.195L337.11 322.487L304.266 341.195Z" fill="#B3E0FF"/>
<path opacity="0.4" d="M371.196 380.752L335.845 360.616L371.185 340.481L371.501 340.66L406.537 360.616L371.196 380.752ZM338.353 360.616L371.196 379.324L404.04 360.616L371.196 341.908L338.353 360.616Z" fill="#B3E0FF"/>
<path opacity="0.4" d="M405.294 400.184L404.977 400.006L369.942 380.049L405.282 359.914L405.599 360.092L440.634 380.049L405.294 400.184ZM372.45 380.038L405.294 398.746L438.137 380.038L405.294 361.33L372.45 380.038Z" fill="#B3E0FF"/>
<path opacity="0.4" d="M64.3517 244.778L29 224.643L64.3404 204.508L64.6567 204.686L99.6921 224.643L64.3517 244.778ZM31.5082 224.643L64.3517 243.351L97.1952 224.643L64.3517 205.935L31.5082 224.643Z" fill="#B3E0FF"/>
<path opacity="0.4" d="M98.4381 264.199L98.1218 264.021L63.0864 244.064L98.4268 223.929L98.7432 224.108L133.778 244.064L98.4381 264.199ZM65.5946 244.064L98.4381 262.772L131.282 244.064L98.4381 225.356L65.5946 244.064Z" fill="#B3E0FF"/>
<path opacity="0.4" d="M132.536 283.632L132.219 283.454L97.1841 263.497L132.524 243.362L132.841 243.54L167.876 263.497L132.536 283.632ZM99.6923 263.497L132.536 282.205L165.379 263.497L132.536 244.789L99.6923 263.497Z" fill="#B3E0FF"/>
<path opacity="0.4" d="M166.633 303.054L166.317 302.876L131.282 282.919L166.622 262.784L201.974 282.919L166.633 303.054ZM133.79 282.919L166.633 301.627L199.477 282.919L166.633 264.211L133.79 282.919Z" fill="#B3E0FF"/>
<path opacity="0.4" d="M200.731 322.476L165.39 302.34L200.731 282.205L236.071 302.34L200.731 322.476ZM167.887 302.34L200.731 321.048L233.574 302.34L200.731 283.632L167.887 302.34Z" fill="#B3E0FF"/>
<path opacity="0.4" d="M234.817 341.908L199.465 321.773L234.806 301.638L235.122 301.816L270.157 321.773L234.817 341.908ZM201.974 321.762L234.817 340.47L267.661 321.762L234.817 303.054L201.974 321.762Z" fill="#B3E0FF"/>
<path opacity="0.4" d="M268.915 361.33L268.598 361.152L233.563 341.195L268.903 321.06L269.22 321.238L304.255 341.195L268.915 361.33ZM236.071 341.195L268.915 359.903L301.758 341.195L268.915 322.487L236.071 341.195Z" fill="#B3E0FF"/>
<path opacity="0.4" d="M303.013 380.752L302.696 380.573L267.661 360.616L303.002 340.481L303.318 340.66L338.353 360.616L303.013 380.752ZM270.169 360.616L303.013 379.324L335.856 360.616L303.013 341.908L270.169 360.616Z" fill="#B3E0FF"/>
<path opacity="0.4" d="M337.11 400.184L336.793 400.006L301.758 380.049L337.098 359.914L372.45 380.049L337.11 400.184ZM304.266 380.038L337.11 398.746L369.953 380.038L337.11 361.33L304.266 380.038Z" fill="#B3E0FF"/>
<path opacity="0.4" d="M64.3517 283.632L29 263.497L64.3404 243.362L64.6567 243.54L99.6921 263.497L64.3517 283.632ZM31.5082 263.486L64.3517 282.194L97.1952 263.486L64.3517 244.778L31.5082 263.486Z" fill="#B3E0FF"/>
<path opacity="0.4" d="M98.4493 303.054L98.133 302.876L63.0977 282.919L98.438 262.784L98.7544 262.962L133.79 282.919L98.4493 303.054ZM65.6058 282.919L98.4493 301.627L131.293 282.919L98.4493 264.211L65.6058 282.919Z" fill="#B3E0FF"/>
<path opacity="0.4" d="M132.536 322.476L132.219 322.297L97.1841 302.34L132.524 282.205L132.841 282.384L167.876 302.34L132.536 322.476ZM99.6923 302.34L132.536 321.048L165.379 302.34L132.536 283.632L99.6923 302.34Z" fill="#B3E0FF"/>
<path opacity="0.4" d="M166.633 341.908L131.293 321.773L166.633 301.638L201.974 321.773L166.633 341.908ZM133.79 321.762L166.633 340.47L199.477 321.762L166.633 303.054L133.79 321.762Z" fill="#B3E0FF"/>
<path opacity="0.4" d="M200.731 361.33L200.414 361.152L165.379 341.195L200.719 321.06L236.071 341.195L200.731 361.33ZM167.887 341.195L200.731 359.903L233.574 341.195L200.731 322.487L167.887 341.195Z" fill="#B3E0FF"/>
<path opacity="0.4" d="M234.828 380.752L199.477 360.616L234.817 340.481L235.133 340.66L270.169 360.616L234.828 380.752ZM201.985 360.616L234.828 379.324L267.672 360.616L234.828 341.908L201.985 360.616Z" fill="#B3E0FF"/>
<path opacity="0.4" d="M268.915 400.184L268.598 400.006L233.563 380.049L268.903 359.914L269.22 360.092L304.255 380.049L268.915 400.184ZM236.071 380.038L268.915 398.746L301.758 380.038L268.915 361.33L236.071 380.038Z" fill="#B3E0FF"/>
<path opacity="0.4" d="M64.3517 322.476L64.0353 322.297L29 302.34L64.3404 282.205L64.6567 282.384L99.6921 302.34L64.3517 322.476ZM31.5082 302.34L64.3517 321.048L97.1952 302.34L64.3517 283.632L31.5082 302.34Z" fill="#B3E0FF"/>
<path opacity="0.4" d="M98.4493 341.908L63.0977 321.773L98.438 301.638L98.7544 301.816L133.79 321.773L98.4493 341.908ZM65.6058 321.762L98.4493 340.47L131.293 321.762L98.4493 303.054L65.6058 321.762Z" fill="#B3E0FF"/>
<path opacity="0.4" d="M132.536 361.33L132.219 361.152L97.1841 341.195L132.524 321.06L167.865 341.195L132.536 361.33ZM99.6923 341.195L132.536 359.903L165.379 341.195L132.536 322.487L99.6923 341.195Z" fill="#B3E0FF"/>
<path opacity="0.4" d="M166.633 380.752L131.293 360.616L166.633 340.481L166.95 340.66L201.985 360.616L166.633 380.752ZM133.79 360.616L166.633 379.324L199.477 360.616L166.633 341.908L133.79 360.616Z" fill="#B3E0FF"/>
<path opacity="0.4" d="M200.731 400.173L200.414 399.995L165.379 380.038L200.719 359.903L236.071 380.038L200.731 400.173ZM167.887 380.038L200.731 398.746L233.574 380.038L200.731 361.33L167.887 380.038Z" fill="#B3E0FF"/>
<path opacity="0.4" d="M64.3517 361.33L64.0353 361.152L29 341.195L64.3404 321.06L99.6921 341.195L64.3517 361.33ZM31.5082 341.195L64.3517 359.903L97.1952 341.195L64.3517 322.487L31.5082 341.195Z" fill="#B3E0FF"/>
<path opacity="0.4" d="M98.4493 380.752L98.133 380.573L63.0977 360.616L98.438 340.481L98.7544 340.66L133.79 360.616L98.4493 380.752ZM65.6058 360.616L98.4493 379.324L131.293 360.616L98.4493 341.908L65.6058 360.616Z" fill="#B3E0FF"/>
<path opacity="0.4" d="M132.535 400.173L97.1948 380.038L132.535 359.903L167.876 380.038L132.535 400.173ZM99.703 380.038L132.547 398.746L165.39 380.038L132.547 361.33L99.703 380.038Z" fill="#B3E0FF"/>
<path opacity="0.4" d="M64.3517 400.173L64.0353 399.995L29 380.038L64.3404 359.903L64.6567 360.081L99.6921 380.038L64.3517 400.173ZM31.5082 380.038L64.3517 398.746L97.1952 380.038L64.3517 361.33L31.5082 380.038Z" fill="#B3E0FF"/>
</g>
<path d="M104.087 312.776C103.816 312.776 103.534 312.709 103.285 312.564C102.788 312.285 102.483 311.761 102.483 311.204V291.035C102.483 290.478 102.788 289.954 103.285 289.675L120.978 279.596C121.475 279.318 122.074 279.318 122.571 279.596C123.068 279.875 123.373 280.399 123.373 280.956V301.125C123.373 301.682 123.068 302.206 122.571 302.485L104.878 312.564C104.641 312.709 104.358 312.776 104.087 312.776ZM105.68 291.949V308.483L120.187 300.222V283.688L105.68 291.949Z" fill="white"/>
<path d="M115.466 203.915C115.127 203.915 114.799 203.826 114.494 203.658L88.9716 189.12C88.3728 188.774 88 188.15 88 187.459C88 186.779 88.3728 186.143 88.9716 185.798L114.494 171.259C115.093 170.914 115.838 170.914 116.437 171.259L141.96 185.798C142.558 186.143 142.931 186.768 142.931 187.459C142.931 188.139 142.558 188.774 141.96 189.12L116.437 203.658C116.144 203.826 115.805 203.915 115.466 203.915ZM93.8298 187.459L115.477 199.79L137.124 187.459L115.477 175.128L93.8298 187.459Z" fill="white"/>
<path d="M400.466 305.915C400.127 305.915 399.799 305.826 399.494 305.658L373.972 291.12C373.373 290.774 373 290.15 373 289.459C373 288.779 373.373 288.143 373.972 287.798L399.494 273.259C400.093 272.914 400.838 272.914 401.437 273.259L426.96 287.798C427.558 288.143 427.931 288.768 427.931 289.459C427.931 290.139 427.558 290.774 426.96 291.12L401.437 305.658C401.144 305.826 400.805 305.915 400.466 305.915ZM378.83 289.459L400.477 301.79L422.124 289.459L400.477 277.128L378.83 289.459Z" fill="white"/>
<path d="M153.466 379.915C153.127 379.915 152.799 379.826 152.494 379.658L126.972 365.12C126.373 364.774 126 364.15 126 363.459C126 362.779 126.373 362.143 126.972 361.798L152.494 347.259C153.093 346.914 153.838 346.914 154.437 347.259L179.96 361.798C180.558 362.143 180.931 362.768 180.931 363.459C180.931 364.139 180.558 364.774 179.96 365.12L154.437 379.658C154.144 379.826 153.805 379.915 153.466 379.915ZM131.83 363.459L153.477 375.79L175.124 363.459L153.477 351.128L131.83 363.459Z" fill="white"/>
<path opacity="0.5" d="M377.703 254.567L352.181 240.028L377.703 225.49L403.225 240.028L377.703 254.567Z" fill="#F2FAFF"/>
<path d="M377.703 245.558C377.364 245.558 377.037 245.469 376.732 245.302L351.221 230.763C350.622 230.418 350.249 229.793 350.249 229.102C350.249 228.422 350.622 227.787 351.221 227.441L376.743 212.903C377.342 212.557 378.087 212.557 378.686 212.903L404.197 227.452C404.796 227.798 405.169 228.422 405.169 229.113C405.169 229.793 404.796 230.429 404.197 230.775L378.675 245.313C378.381 245.48 378.042 245.558 377.703 245.558ZM356.068 229.113L377.715 241.444L399.35 229.113L377.703 216.783L356.068 229.113Z" fill="white"/>
<path d="M403.226 217.741L377.703 232.291V203.203L403.226 188.665V217.741Z" fill="url(#paint0_radial)"/>
<path d="M377.703 203.203L352.181 188.665L377.703 174.126L403.225 188.665L377.703 203.203Z" fill="url(#paint1_linear)"/>
<path d="M377.703 232.291L352.181 217.741V188.665L377.703 203.203V232.291Z" fill="url(#paint2_radial)"/>
<path d="M368.518 216.582L361.377 212.513V204.374L368.518 208.443V216.582Z" fill="white"/>
<path d="M370.574 188.754L377.658 184.595L384.844 188.576L377.76 192.734L370.574 188.754Z" fill="white"/>
<path d="M363.626 209.206L289.395 251.486L291.332 254.798L365.563 212.518L363.626 209.206Z" fill="white"/>
<path opacity="0.5" d="M228.795 357.283L163.334 319.989C160.938 318.618 161.232 316.232 164 314.66L233.382 275.036C236.15 273.453 240.341 273.286 242.736 274.657L308.197 311.951C310.593 313.322 310.299 315.708 307.531 317.28L238.149 356.904C235.381 358.476 231.201 358.643 228.795 357.283Z" fill="#F2FAFF"/>
<path d="M232.873 345.019C231.009 345.019 229.202 344.629 227.834 343.848L162.373 306.555C160.724 305.618 159.786 304.169 159.786 302.586C159.786 300.791 160.972 299.096 163.051 297.914L232.433 258.29C235.788 256.373 240.748 256.206 243.731 257.911L309.192 295.205C310.841 296.141 311.779 297.591 311.779 299.174C311.779 300.969 310.593 302.664 308.514 303.845L239.144 343.469C237.325 344.495 235.054 345.019 232.873 345.019ZM229.766 340.537C231.563 341.563 235.031 341.384 237.189 340.158L306.559 300.534C307.531 299.977 307.881 299.419 307.881 299.174C307.881 299.029 307.678 298.773 307.237 298.516L241.776 261.223C239.98 260.197 236.511 260.375 234.353 261.602L164.983 301.225C164.012 301.783 163.661 302.34 163.661 302.586C163.661 302.73 163.865 302.987 164.317 303.243L229.766 340.537Z" fill="white"/>
<path d="M233.517 160.982C233.517 160.982 197.578 164.36 175.931 165.999L233.337 327.336L309.271 284.123C309.282 284.112 309.294 284.112 309.305 284.1L309.441 284.022V284.011C310.39 283.42 310.988 282.127 310.988 280.31V122.618C310.988 120.957 310.48 119.162 309.666 117.59L233.517 160.982Z" fill="url(#paint3_radial)"/>
<path d="M306.3 113.754L239.517 75.7027C238.353 75.0449 237.291 74.9891 236.478 75.4462L160.238 118.849L163.831 131.972L182.947 185.699L186.551 187.75L309.689 117.59C308.831 115.928 307.633 114.512 306.3 113.754Z" fill="url(#paint4_linear)"/>
<path d="M230.117 327.192L163.334 289.14C160.735 287.657 158.634 283.688 158.634 280.276V122.584C158.634 119.173 160.735 117.601 163.334 119.072L230.117 157.124C232.715 158.607 234.817 162.576 234.817 165.988V323.691C234.817 327.102 232.715 328.674 230.117 327.192Z" fill="#5793CE"/>
<path d="M231.552 156.332L164.769 118.281C163.266 117.422 161.933 117.601 161.074 118.548C161.752 118.448 162.52 118.604 163.345 119.072L230.128 157.124C232.727 158.607 234.828 162.576 234.828 165.988V323.691C234.828 325.129 234.455 326.233 233.823 326.935C235.269 326.712 236.263 325.24 236.263 322.899V165.196C236.252 161.773 234.15 157.804 231.552 156.332Z" fill="white"/>
<path d="M225.914 317.704L167.537 284.446C165.266 283.153 163.424 279.685 163.424 276.698V130.233C163.424 127.245 165.266 125.873 167.537 127.167L225.914 160.424C228.185 161.718 230.026 165.185 230.026 168.173V314.627C230.026 317.626 228.185 318.997 225.914 317.704Z" fill="url(#paint5_linear)"/>
<path d="M225.914 317.704L167.537 284.446C165.266 283.153 163.424 279.685 163.424 276.698V130.233C163.424 127.245 165.266 125.873 167.537 127.167L225.914 160.424C228.185 161.718 230.026 165.185 230.026 168.173V314.627C230.026 317.626 228.185 318.997 225.914 317.704Z" fill="url(#paint6_linear)"/>
<path d="M225.914 317.704L167.537 284.446C165.266 283.153 163.424 279.685 163.424 276.698V130.233C163.424 127.245 165.266 125.873 167.537 127.167L225.914 160.424C228.185 161.718 230.026 165.185 230.026 168.173V314.627C230.026 317.626 228.185 318.997 225.914 317.704Z" fill="#173D7A"/>
<path d="M227.823 316.589L169.446 283.331C167.175 282.038 165.334 278.57 165.334 275.583V129.129C165.334 128.114 165.548 127.289 165.921 126.687C164.452 126.676 163.424 128.003 163.424 130.244V276.697C163.424 279.685 165.266 283.153 167.537 284.446L225.914 317.704C227.405 318.551 228.716 318.25 229.439 317.079C228.942 317.079 228.4 316.923 227.823 316.589Z" fill="#396CAA"/>
<path d="M225.914 250.464L204.222 238.099L169.616 257.811L230.027 292.228V258.201C230.027 255.224 228.185 251.757 225.914 250.464Z" fill="#173D7A"/>
<path d="M225.914 220.451L204.222 208.086L169.616 227.798L230.027 262.215V228.199C230.027 225.211 228.185 221.744 225.914 220.451Z" fill="#173D7A"/>
<path d="M225.914 190.437L204.222 178.073L169.616 197.785L230.027 232.202V198.175C230.027 195.198 228.185 191.731 225.914 190.437Z" fill="#173D7A"/>
<path d="M225.914 160.424L204.222 148.06L169.616 167.771L230.027 202.188V168.162C230.027 165.185 228.185 161.717 225.914 160.424Z" fill="#173D7A"/>
<path d="M225.914 160.424L177.875 133.053L169.604 137.769L230.015 172.186V168.173C230.027 165.185 228.185 161.717 225.914 160.424Z" fill="#173D7A"/>
<path d="M230.027 172.186L169.616 137.769V156.734L230.027 191.162V172.186Z" fill="#5793CE"/>
<path d="M230.027 202.2L169.616 167.783V186.747L230.027 221.164V202.2Z" fill="#5793CE"/>
<path d="M230.027 232.213L169.616 197.796V216.76L230.027 251.177V232.213Z" fill="#5793CE"/>
<path d="M230.027 262.226L169.616 227.798V246.774L230.027 281.191V262.226Z" fill="#5793CE"/>
<path d="M230.027 292.239L169.616 257.811V276.787L230.027 311.204V292.239Z" fill="#5793CE"/>
<path d="M224.705 184.395L179.196 158.473C177.908 157.737 176.869 155.775 176.869 154.092V149.008C176.869 147.313 177.908 146.544 179.196 147.268L224.705 173.19C225.993 173.926 227.032 175.888 227.032 177.571V182.655C227.021 184.35 225.981 185.13 224.705 184.395Z" fill="#173D7A"/>
<path opacity="0.3" d="M181.49 157.502C180.202 156.767 179.162 154.804 179.162 153.121V148.037C179.162 147.769 179.196 147.524 179.253 147.312L179.196 147.279C177.908 146.543 176.869 147.323 176.869 149.018V154.102C176.869 155.797 177.908 157.759 179.196 158.484L224.705 184.405C225.789 185.018 226.682 184.561 226.942 183.402L181.49 157.502Z" fill="#06033E"/>
<path d="M210.424 170.481L183.038 154.883C182.586 154.627 182.224 153.935 182.224 153.345C182.224 152.754 182.586 152.475 183.038 152.731L210.424 168.329C210.876 168.585 211.238 169.277 211.238 169.867C211.238 170.458 210.876 170.737 210.424 170.481Z" fill="white"/>
<path d="M224.705 214.229L179.196 188.307C177.908 187.572 176.869 185.609 176.869 183.926V178.842C176.869 177.147 177.908 176.378 179.196 177.103L224.705 203.024C225.993 203.76 227.032 205.722 227.032 207.406V212.49C227.021 214.184 225.981 214.954 224.705 214.229Z" fill="#173D7A"/>
<path opacity="0.3" d="M181.49 187.327C180.202 186.591 179.162 184.629 179.162 182.945V177.861C179.162 177.594 179.196 177.348 179.253 177.137L179.196 177.103C177.908 176.367 176.869 177.148 176.869 178.842V183.926C176.869 185.621 177.908 187.583 179.196 188.308L224.705 214.229C225.789 214.843 226.682 214.386 226.942 213.226L181.49 187.327Z" fill="#06033E"/>
<path d="M210.424 200.304L183.038 184.707C182.586 184.45 182.224 183.759 182.224 183.168C182.224 182.577 182.586 182.299 183.038 182.555L210.424 198.153C210.876 198.409 211.238 199.1 211.238 199.691C211.238 200.282 210.876 200.561 210.424 200.304Z" fill="white"/>
<path d="M224.705 244.331L179.196 218.41C177.908 217.674 176.869 215.712 176.869 214.028V208.944C176.869 207.25 177.908 206.48 179.196 207.205L224.705 233.127C225.993 233.862 227.032 235.825 227.032 237.508V242.592C227.021 244.287 225.981 245.056 224.705 244.331Z" fill="#173D7A"/>
<path opacity="0.3" d="M181.49 217.429C180.202 216.693 179.162 214.731 179.162 213.048V207.964C179.162 207.696 179.196 207.451 179.253 207.239L179.196 207.206C177.908 206.47 176.869 207.25 176.869 208.945V214.029C176.869 215.723 177.908 217.686 179.196 218.41L224.705 244.332C225.789 244.945 226.682 244.488 226.942 243.328L181.49 217.429Z" fill="#06033E"/>
<path d="M210.424 230.407L183.038 214.809C182.586 214.553 182.224 213.862 182.224 213.271C182.224 212.68 182.586 212.401 183.038 212.657L210.424 228.255C210.876 228.511 211.238 229.203 211.238 229.794C211.238 230.384 210.876 230.663 210.424 230.407Z" fill="#D4ECFF"/>
<path d="M224.705 274.713L179.196 248.791C177.908 248.055 176.869 246.093 176.869 244.409V239.325C176.869 237.631 177.908 236.862 179.196 237.586L224.705 263.508C225.993 264.244 227.032 266.206 227.032 267.889V272.973C227.021 274.668 225.981 275.437 224.705 274.713Z" fill="#173D7A"/>
<path opacity="0.3" d="M181.49 247.81C180.202 247.075 179.162 245.112 179.162 243.429V238.345C179.162 238.077 179.196 237.832 179.253 237.62L179.196 237.587C177.908 236.851 176.869 237.631 176.869 239.326V244.41C176.869 246.105 177.908 248.067 179.196 248.791L224.705 274.713C225.789 275.326 226.682 274.869 226.942 273.71L181.49 247.81Z" fill="#06033E"/>
<path d="M210.424 260.788L183.038 245.19C182.586 244.934 182.224 244.243 182.224 243.652C182.224 243.061 182.586 242.782 183.038 243.039L210.424 258.636C210.876 258.892 211.238 259.584 211.238 260.175C211.238 260.777 210.876 261.044 210.424 260.788Z" fill="#FF2C9C"/>
<path d="M224.705 304.492L179.196 278.57C177.908 277.834 176.869 275.872 176.869 274.188V269.105C176.869 267.41 177.908 266.641 179.196 267.365L224.705 293.287C225.993 294.023 227.032 295.985 227.032 297.668V302.752C227.021 304.447 225.981 305.216 224.705 304.492Z" fill="#173D7A"/>
<path opacity="0.3" d="M181.49 277.589C180.202 276.854 179.162 274.891 179.162 273.208V268.124C179.162 267.856 179.196 267.611 179.253 267.399L179.196 267.366C177.908 266.63 176.869 267.41 176.869 269.105V274.189C176.869 275.884 177.908 277.846 179.196 278.571L224.705 304.492C225.789 305.105 226.682 304.648 226.942 303.489L181.49 277.589Z" fill="#06033E"/>
<path d="M210.424 290.567L183.038 274.969C182.586 274.713 182.224 274.022 182.224 273.431C182.224 272.84 182.586 272.561 183.038 272.818L210.424 288.415C210.876 288.672 211.238 289.363 211.238 289.954C211.238 290.556 210.876 290.823 210.424 290.567Z" fill="#D4ECFF"/>
<path opacity="0.5" d="M169.616 137.769L174.372 140.479V159.443L169.616 156.734V137.769Z" fill="#173D7A"/>
<path opacity="0.5" d="M169.616 167.783L174.372 170.492V189.456L169.616 186.747V167.783Z" fill="#173D7A"/>
<path opacity="0.5" d="M169.616 197.796L174.372 200.505V219.47L169.616 216.76V197.796Z" fill="#173D7A"/>
<path opacity="0.5" d="M169.616 227.798L174.372 230.518V249.483L169.616 246.774V227.798Z" fill="#173D7A"/>
<path opacity="0.5" d="M169.616 257.811L174.372 260.52V279.496L169.616 276.787V257.811Z" fill="#173D7A"/>
<path d="M215.546 172.956C215.924 172.741 215.925 172.043 215.547 171.398C215.17 170.752 214.557 170.404 214.179 170.62C213.8 170.835 213.8 171.533 214.177 172.178C214.555 172.823 215.168 173.172 215.546 172.956Z" fill="#D4ECFF"/>
<path d="M219.904 174.673C219.904 175.275 219.474 175.52 218.943 175.219C218.412 174.918 217.983 174.182 217.983 173.569C217.983 172.956 218.412 172.722 218.943 173.023C219.463 173.335 219.904 174.071 219.904 174.673Z" fill="#FF2C9C"/>
<path d="M223.982 177.003C223.982 177.605 223.552 177.85 223.021 177.549C222.49 177.248 222.061 176.512 222.061 175.899C222.061 175.286 222.49 175.052 223.021 175.353C223.552 175.654 223.982 176.401 223.982 177.003Z" fill="#D4ECFF"/>
<path d="M215.813 202.345C215.813 202.947 215.384 203.192 214.853 202.891C214.322 202.59 213.893 201.854 213.893 201.241C213.893 200.628 214.322 200.393 214.853 200.694C215.384 201.007 215.813 201.742 215.813 202.345Z" fill="#FF2C9C"/>
<path d="M219.904 204.675C219.904 205.277 219.474 205.522 218.943 205.221C218.412 204.92 217.983 204.184 217.983 203.571C217.983 202.958 218.412 202.724 218.943 203.025C219.463 203.326 219.904 204.062 219.904 204.675Z" fill="#D4ECFF"/>
<path d="M223.982 206.994C223.982 207.596 223.552 207.841 223.021 207.54C222.49 207.239 222.061 206.503 222.061 205.89C222.061 205.288 222.49 205.043 223.021 205.344C223.552 205.656 223.982 206.392 223.982 206.994Z" fill="white"/>
<path d="M215.813 232.57C215.813 233.172 215.384 233.417 214.853 233.116C214.322 232.815 213.893 232.079 213.893 231.466C213.893 230.864 214.322 230.618 214.853 230.92C215.384 231.221 215.813 231.956 215.813 232.57Z" fill="white"/>
<path d="M219.904 234.889C219.904 235.491 219.474 235.736 218.943 235.435C218.412 235.134 217.983 234.398 217.983 233.785C217.983 233.172 218.412 232.938 218.943 233.239C219.463 233.551 219.904 234.287 219.904 234.889Z" fill="#FF2C9C"/>
<path d="M223.982 237.219C223.982 237.821 223.552 238.066 223.021 237.765C222.49 237.464 222.061 236.728 222.061 236.115C222.061 235.502 222.49 235.268 223.021 235.569C223.552 235.881 223.982 236.617 223.982 237.219Z" fill="white"/>
<path d="M215.813 262.349C215.813 262.951 215.384 263.196 214.853 262.895C214.322 262.594 213.893 261.858 213.893 261.245C213.893 260.632 214.322 260.398 214.853 260.699C215.384 261.011 215.813 261.747 215.813 262.349Z" fill="white"/>
<path d="M219.904 264.679C219.904 265.281 219.474 265.526 218.943 265.225C218.412 264.924 217.983 264.188 217.983 263.575C217.983 262.962 218.412 262.728 218.943 263.029C219.463 263.33 219.904 264.066 219.904 264.679Z" fill="#D4ECFF"/>
<path d="M223.982 266.998C223.982 267.6 223.552 267.845 223.021 267.544C222.49 267.243 222.061 266.507 222.061 265.894C222.061 265.292 222.49 265.047 223.021 265.348C223.552 265.66 223.982 266.396 223.982 266.998Z" fill="#D4ECFF"/>
<path d="M215.813 292.54C215.813 293.142 215.384 293.388 214.853 293.087C214.322 292.786 213.893 292.05 213.893 291.437C213.893 290.835 214.322 290.589 214.853 290.89C215.384 291.191 215.813 291.927 215.813 292.54Z" fill="white"/>
<path d="M219.904 294.87C219.904 295.473 219.474 295.718 218.943 295.417C218.412 295.116 217.983 294.38 217.983 293.767C217.983 293.154 218.412 292.919 218.943 293.22C219.463 293.521 219.904 294.257 219.904 294.87Z" fill="#FF2C9C"/>
<path d="M223.982 297.189C223.982 297.791 223.552 298.037 223.021 297.736C222.49 297.435 222.061 296.699 222.061 296.086C222.061 295.472 222.49 295.238 223.021 295.539C223.552 295.852 223.982 296.587 223.982 297.189Z" fill="#D4ECFF"/>
<path d="M244.883 305.875V171.596L245.166 171.439L302.04 139.04V273.319L301.758 273.475L244.883 305.875ZM246.002 172.242V303.957L300.899 272.684V140.958L246.002 172.242Z" fill="#173D7A"/>
<path d="M287.263 199.457L261.763 213.984C260.045 214.965 258.656 213.928 258.656 211.665V197.718C258.656 195.466 260.045 192.846 261.763 191.865L287.263 177.337C288.98 176.356 290.369 177.393 290.369 179.656V193.604C290.358 195.856 288.969 198.476 287.263 199.457Z" fill="#173D7A"/>
<path d="M287.873 177.07C288.02 177.46 288.099 177.928 288.099 178.463V192.411C288.099 194.663 286.71 197.283 284.992 198.253L259.493 212.78C259.278 212.903 259.074 212.992 258.871 213.048C259.334 214.285 260.442 214.709 261.741 213.962L287.241 199.435C288.958 198.454 290.336 195.845 290.336 193.582V179.634C290.359 177.683 289.297 176.635 287.873 177.07Z" fill="#5793CE"/>
<path d="M282.597 191.051C283.071 190.783 283.456 190.995 283.456 191.541V194.719C283.456 195.254 283.071 195.912 282.597 196.179C282.122 196.447 281.738 196.235 281.738 195.689V192.511C281.75 191.976 282.134 191.318 282.597 191.051Z" fill="white"/>
<path d="M278.948 193.537C279.423 193.269 279.807 193.481 279.807 194.027V196.803C279.807 197.339 279.423 197.996 278.948 198.264C278.474 198.532 278.089 198.32 278.089 197.773V194.997C278.089 194.451 278.474 193.804 278.948 193.537Z" fill="#D4ECFF"/>
<path d="M275.287 192.511C275.762 192.244 276.146 192.455 276.146 193.002V198.888C276.146 199.424 275.762 200.081 275.287 200.349C274.813 200.616 274.429 200.405 274.429 199.858V193.972C274.429 193.436 274.813 192.779 275.287 192.511Z" fill="#FF2C9C"/>
<path d="M271.626 191.207C272.101 190.939 272.485 191.151 272.485 191.697V200.973C272.485 201.508 272.101 202.166 271.626 202.434C271.152 202.701 270.768 202.489 270.768 201.943V192.667C270.768 192.132 271.152 191.474 271.626 191.207Z" fill="#D4ECFF"/>
<path d="M267.966 194.261C268.441 193.994 268.825 194.206 268.825 194.752V203.058C268.825 203.593 268.441 204.251 267.966 204.519C267.492 204.786 267.107 204.574 267.107 204.028V195.722C267.119 195.187 267.492 194.529 267.966 194.261Z" fill="#D4ECFF"/>
<path d="M264.305 200.137C264.78 199.869 265.164 200.081 265.164 200.628V205.132C265.164 205.667 264.78 206.325 264.305 206.592C263.831 206.86 263.447 206.648 263.447 206.102V201.598C263.458 201.062 263.842 200.405 264.305 200.137Z" fill="white"/>
<path d="M281.761 189.445C281.761 189.969 282.134 190.192 282.597 189.925C283.06 189.657 283.433 189.021 283.433 188.486C283.433 187.951 283.06 187.739 282.597 188.007C282.134 188.274 281.761 188.921 281.761 189.445Z" fill="#FF2C9C"/>
<path d="M283.175 186.317C283.503 185.757 283.501 185.151 283.172 184.963C282.842 184.775 282.309 185.077 281.982 185.637C281.654 186.197 281.656 186.803 281.986 186.991C282.315 187.179 282.848 186.877 283.175 186.317Z" fill="white"/>
<path d="M379.658 114.379H375.771V188.665H379.658V114.379Z" fill="white"/>
<path opacity="0.5" d="M359.921 391.609L320.931 369.389C318.536 368.029 318.841 365.643 321.598 364.071L359.243 342.621C362.011 341.049 366.191 340.87 368.575 342.241L407.565 364.462C409.96 365.822 409.655 368.208 406.898 369.78L369.253 391.23C366.496 392.802 362.316 392.981 359.921 391.609Z" fill="#F2FAFF"/>
<path d="M363.999 382.568C362.09 382.568 360.259 382.166 358.813 381.341L319.823 359.121C318.095 358.14 317.101 356.601 317.101 354.918C317.101 353.034 318.332 351.25 320.49 350.012L358.135 328.562C361.615 326.577 366.586 326.41 369.682 328.183L408.671 350.403C410.4 351.384 411.394 352.922 411.394 354.606C411.394 356.49 410.163 358.274 408.005 359.511L370.36 380.962C368.496 382.032 366.202 382.568 363.999 382.568ZM361.028 377.562C362.745 378.543 366.078 378.364 368.157 377.183L405.802 355.732C406.751 355.197 406.977 354.706 406.977 354.617C406.965 354.595 406.841 354.405 406.468 354.204L367.479 331.984C365.761 331.003 362.428 331.182 360.361 332.363L322.716 353.814C321.767 354.349 321.541 354.84 321.541 354.929C321.552 354.951 321.676 355.13 322.049 355.342L361.028 377.562Z" fill="white"/>
<path d="M409.18 341.004V327.725L379.014 327.714L368.586 321.772C366.191 320.412 362.01 320.579 359.254 322.151L349.526 327.692L319.326 327.681V341.338C319.258 342.264 319.778 343.156 320.93 343.802L359.92 366.022C362.315 367.383 366.496 367.215 369.252 365.643L406.898 344.193C408.502 343.278 409.27 342.097 409.18 341.004Z" fill="#396CAA"/>
<path d="M364.259 320.858C362.507 320.902 360.688 321.337 359.254 322.151L349.526 327.692L319.326 327.681V341.338C319.258 342.264 319.778 343.156 320.93 343.802L359.92 366.022C361.073 366.68 362.632 366.97 364.259 366.937V320.858V320.858Z" fill="url(#paint7_radial)"/>
<path d="M322.738 327.681H319.326V341.338C319.258 342.264 319.778 343.156 320.93 343.802L322.749 344.839V327.681H322.738Z" fill="#D4ECFF"/>
<path d="M360.519 366.301C362.587 367.171 365.569 367.126 367.987 366.212V350.704H360.519V366.301Z" fill="#5793CE"/>
<path d="M359.92 352.409L320.931 330.189C318.536 328.829 318.841 326.443 321.597 324.871L359.243 303.421C362.011 301.849 366.191 301.67 368.575 303.041L407.564 325.262C409.96 326.622 409.655 329.008 406.898 330.58L369.253 352.03C366.496 353.602 362.316 353.77 359.92 352.409Z" fill="url(#paint8_linear)"/>
<path d="M406.909 327.96L369.264 349.41C366.496 350.982 362.315 351.161 359.931 349.789L320.942 327.569C320.411 327.268 320.015 326.912 319.744 326.521C318.919 327.826 319.292 329.242 320.942 330.178L359.931 352.398C362.327 353.758 366.507 353.591 369.264 352.019L406.909 330.568C409.055 329.342 409.711 327.636 408.773 326.298C408.4 326.9 407.767 327.469 406.909 327.96Z" fill="white"/>
<path d="M394.843 344.505C394.843 345.497 394.142 346.701 393.272 347.192C392.402 347.682 391.702 347.281 391.702 346.3C391.702 345.307 392.402 344.103 393.272 343.613C394.131 343.111 394.843 343.512 394.843 344.505Z" fill="#D4ECFF"/>
<path d="M399.904 341.617C399.904 342.609 399.203 343.813 398.333 344.304C397.463 344.795 396.763 344.393 396.763 343.412C396.763 342.431 397.463 341.216 398.333 340.725C399.203 340.223 399.904 340.625 399.904 341.617Z" fill="#D4ECFF"/>
<path d="M404.977 338.73C404.977 339.722 404.276 340.926 403.406 341.416C402.536 341.907 401.836 341.506 401.836 340.525C401.836 339.532 402.536 338.328 403.406 337.838C404.265 337.336 404.977 337.737 404.977 338.73Z" fill="#D4ECFF"/>
<path d="M362.225 338.64L343.979 328.249C342.86 327.614 342.996 326.499 344.295 325.763L361.909 315.729C363.197 314.993 365.162 314.915 366.281 315.551L384.527 325.942C385.646 326.577 385.51 327.692 384.211 328.428L366.597 338.462C365.298 339.198 363.343 339.276 362.225 338.64Z" fill="#5793CE"/>
<path d="M363.976 329.933L361.456 328.495C361.298 328.406 361.321 328.249 361.502 328.149L363.942 326.755C364.123 326.655 364.394 326.644 364.541 326.733L367.06 328.171C367.218 328.261 367.196 328.417 367.015 328.517L364.575 329.911C364.394 330.011 364.123 330.022 363.976 329.933Z" fill="#D4ECFF"/>
<path d="M343.979 328.238L344.035 328.272C344.125 328.216 344.193 328.149 344.295 328.093L361.909 318.059C363.197 317.323 365.162 317.245 366.281 317.881L384.471 328.249C385.499 327.525 385.555 326.532 384.527 325.942L366.281 315.551C365.162 314.915 363.208 314.993 361.909 315.729L344.295 325.763C342.996 326.488 342.86 327.603 343.979 328.238Z" fill="#396CAA"/>
<path opacity="0.5" d="M87.6035 327.381L48.6139 305.161C46.2187 303.801 46.5237 301.415 49.2805 299.843L86.9256 278.392C89.6937 276.82 93.874 276.642 96.2579 278.013L135.248 300.233C137.643 301.593 137.338 303.979 134.581 305.551L96.9358 327.002C94.179 328.574 89.9987 328.752 87.6035 327.381Z" fill="#F2FAFF"/>
<path d="M91.6708 318.339C89.7614 318.339 87.9311 317.938 86.485 317.113L47.4953 294.893C45.7667 293.912 44.7725 292.373 44.7725 290.69C44.7725 288.805 46.004 287.022 48.1619 285.784L85.8071 264.333C89.2869 262.349 94.2581 262.181 97.3537 263.954L136.343 286.174C138.072 287.155 139.066 288.694 139.066 290.377C139.066 292.262 137.835 294.045 135.677 295.283L98.0316 316.734C96.1787 317.804 93.8852 318.339 91.6708 318.339ZM88.7107 313.333C90.428 314.314 93.7496 314.136 95.8285 312.954L133.474 291.503C134.423 290.968 134.649 290.478 134.649 290.389C134.637 290.366 134.513 290.177 134.14 289.976L95.1506 267.756C93.4333 266.775 90.1004 266.953 88.0328 268.135L50.3876 289.586C49.4386 290.121 49.2126 290.612 49.2126 290.701C49.2239 290.723 49.3482 290.901 49.721 291.113L88.7107 313.333Z" fill="white"/>
<path d="M136.863 276.776V263.497L106.697 263.486L96.2694 257.543C93.8742 256.183 89.6939 256.351 86.9372 257.923L77.2095 263.464L47.0098 263.452V277.11C46.942 278.035 47.4617 278.927 48.6141 279.574L87.6037 301.794C89.9989 303.154 94.1792 302.987 96.936 301.415L134.581 279.964C136.185 279.05 136.954 277.868 136.863 276.776Z" fill="#396CAA"/>
<path d="M91.931 256.629C90.1798 256.674 88.3608 257.109 86.9259 257.923L77.1983 263.464L46.9985 263.452V277.11C46.9307 278.035 47.4505 278.927 48.6029 279.574L87.5925 301.794C88.7449 302.452 90.304 302.742 91.931 302.708V256.629V256.629Z" fill="url(#paint9_radial)"/>
<path d="M50.4218 263.452H47.0098V277.11C46.942 278.035 47.4617 278.927 48.6141 279.574L50.4331 280.611V263.452H50.4218Z" fill="#D4ECFF"/>
<path d="M88.2021 302.073C90.2697 302.942 93.2524 302.898 95.6702 301.984V286.475H88.2021V302.073Z" fill="#5793CE"/>
<path d="M87.6035 288.181L48.6139 265.961C46.2187 264.601 46.5237 262.215 49.2805 260.643L86.9256 239.192C89.6937 237.62 93.874 237.442 96.2579 238.813L135.248 261.033C137.643 262.393 137.338 264.779 134.581 266.351L96.9358 287.802C94.179 289.374 89.9987 289.541 87.6035 288.181Z" fill="url(#paint10_linear)"/>
<path d="M134.592 263.731L96.9472 285.182C94.1791 286.754 89.9989 286.932 87.615 285.561L48.6253 263.341C48.0943 263.04 47.6989 262.683 47.4277 262.293C46.6029 263.597 46.9758 265.013 48.6253 265.95L87.615 288.17C90.0102 289.53 94.1904 289.363 96.9472 287.791L134.592 266.34C136.739 265.114 137.394 263.408 136.457 262.07C136.072 262.672 135.451 263.241 134.592 263.731Z" fill="white"/>
<path d="M122.515 280.276C122.515 281.269 121.814 282.473 120.944 282.963C120.075 283.454 119.374 283.052 119.374 282.071C119.374 281.079 120.075 279.875 120.944 279.384C121.814 278.883 122.515 279.284 122.515 280.276Z" fill="#D4ECFF"/>
<path d="M127.588 277.389C127.588 278.381 126.887 279.585 126.017 280.076C125.147 280.566 124.447 280.165 124.447 279.184C124.447 278.203 125.147 276.987 126.017 276.497C126.876 275.995 127.588 276.397 127.588 277.389Z" fill="#D4ECFF"/>
<path d="M132.649 274.501C132.649 275.493 131.949 276.698 131.079 277.188C130.209 277.679 129.508 277.277 129.508 276.296C129.508 275.304 130.209 274.1 131.079 273.609C131.949 273.108 132.649 273.509 132.649 274.501Z" fill="#D4ECFF"/>
<path d="M89.9086 274.412L71.6622 264.021C70.5437 263.386 70.6792 262.271 71.9785 261.535L89.5922 251.501C90.8802 250.765 92.8461 250.687 93.9646 251.322L112.211 261.713C113.329 262.349 113.194 263.464 111.895 264.199L94.2809 274.234C92.9816 274.969 91.0271 275.047 89.9086 274.412Z" fill="#5793CE"/>
<path d="M91.6487 265.705L89.1292 264.266C88.971 264.177 88.9936 264.021 89.1744 263.921L91.6148 262.527C91.7955 262.427 92.0667 262.416 92.2249 262.505L94.7444 263.943C94.9025 264.032 94.8799 264.188 94.6992 264.289L92.2588 265.682C92.078 265.783 91.8068 265.794 91.6487 265.705Z" fill="#D4ECFF"/>
<path d="M71.6622 264.01L71.7187 264.043C71.809 263.988 71.8768 263.921 71.9785 263.865L89.5922 253.831C90.8802 253.095 92.8461 253.017 93.9646 253.652L112.154 264.021C113.183 263.296 113.239 262.304 112.211 261.713L93.9646 251.322C92.8461 250.687 90.8915 250.765 89.5922 251.501L71.9785 261.535C70.6792 262.259 70.5437 263.374 71.6622 264.01Z" fill="#396CAA"/>
<path d="M422.015 148.011L435.184 140.352L422.64 124.899L419.342 130.224L422.015 148.011Z" fill="#5793CE"/>
<path d="M326.358 63.2125L347.388 51.2819C347.388 51.2819 346.603 63.188 346.603 63.2125C346.603 63.237 334.525 66.9028 334.525 66.9028L326.358 63.2125Z" fill="#5793CE"/>
<path d="M425.667 109.157C424.073 108.249 422.54 107.717 421.118 107.499C418.997 96.5127 411.248 84.8363 402.001 79.5717C399.218 77.9874 396.581 77.1401 394.178 76.9584C392.915 63.6364 383.523 48.4871 372.131 42.0006C366.172 38.6124 360.777 38.201 356.792 40.2825V40.2702L356.595 40.3795C356.497 40.4397 356.387 40.4887 356.289 40.549L343.892 47.7724L348.012 50.9789C344.309 52.5765 341.979 56.666 341.979 62.7166C341.979 73.8734 349.913 87.4374 359.71 93.0152L425.667 139.492C433.025 143.679 438.983 140.292 438.983 131.905C438.983 123.532 433.025 113.344 425.667 109.157Z" fill="#5793CE"/>
<path d="M342.592 57.8041L371.04 41.3961C365.522 38.552 360.531 38.3223 356.779 40.27V40.2578L356.584 40.367C356.486 40.4272 356.375 40.4763 356.277 40.5365L343.88 47.76L348 50.9664C345.437 52.0925 343.512 54.4271 342.592 57.8041Z" fill="#5793CE"/>
<path d="M395.135 106.059L415.895 94.0318C412.339 87.9578 407.433 82.6453 402.001 79.5481C401.278 79.1367 400.579 78.7855 399.881 78.4711L373.48 93.7051L395.135 106.059Z" fill="#5793CE"/>
<path d="M349.743 49.1034L358.988 54.3792L375.935 44.5301C374.696 43.5858 373.421 42.7262 372.133 41.9881C370.086 40.8152 368.099 40.0159 366.211 39.532L349.743 49.1034Z" fill="#D4ECFF"/>
<path d="M413.614 90.4987L397.047 100.13L402.811 106.471L417.856 97.7099C416.655 95.1936 415.22 92.7731 413.614 90.4987Z" fill="#D4ECFF"/>
<path d="M412.658 116.72C411.064 115.813 409.532 115.28 408.109 115.062C405.988 104.075 398.238 92.3985 388.993 87.1351C386.209 85.5497 383.572 84.7023 381.169 84.5206C379.906 71.1986 370.514 56.0493 359.122 49.5628C346.86 42.5813 336.928 48.2439 336.928 62.208C336.928 62.6796 336.94 63.1635 336.965 63.6362C328.001 59.5334 321 64.1558 321 74.6347C321 85.7916 328.934 99.3555 338.73 104.934L412.67 147.067C420.028 151.253 425.987 147.866 425.987 139.48C425.963 131.095 420.003 120.907 412.658 116.72Z" fill="#D4ECFF"/>
<path d="M336.953 63.6239C336.929 63.1401 336.917 62.6685 336.917 62.1957C336.917 62.1723 336.917 62.1601 336.917 62.1355C331.963 60.2357 327.708 61.0585 325.035 64.1078C327.941 61.7609 332.159 61.4331 336.953 63.6239Z" fill="white"/>
<path d="M413.738 115.679C412.131 114.771 410.612 114.239 409.189 114.021C407.067 103.035 399.318 91.3572 390.073 86.0937C387.289 84.5083 384.652 83.6621 382.249 83.4804C380.986 70.1573 371.594 55.008 360.202 48.5226C352.563 44.1666 345.831 44.7352 341.833 49.1514C345.904 45.7152 352.134 45.5826 359.123 49.5628C370.527 56.0615 379.907 71.1986 381.17 84.5206C383.573 84.7023 386.21 85.5496 388.993 87.1339C398.239 92.3985 405.989 104.075 408.11 115.062C409.533 115.28 411.052 115.811 412.659 116.719C420.016 120.907 425.976 131.095 425.976 139.467C425.976 142.493 425.191 144.852 423.854 146.462C425.853 144.949 427.055 142.202 427.055 138.427C427.055 130.054 421.095 119.865 413.738 115.679Z" fill="white"/>
<path d="M335.396 66.9508L340.95 69.4928L340.669 63.4545C340.644 63.0308 340.631 62.6072 340.631 62.1958C340.631 56.7996 342.287 52.8908 345.279 51.185C348.271 49.4792 352.526 50.0232 357.259 52.7213C367.436 58.5177 376.314 72.6268 377.467 84.8473L377.761 87.9211L380.888 88.163C382.813 88.3079 384.91 89.0226 387.141 90.2925C395.223 94.9026 402.505 105.599 404.468 115.739L404.958 118.281L407.545 118.68C408.576 118.837 409.678 119.249 410.807 119.902C417.012 123.435 422.26 132.401 422.26 139.48C422.26 142.13 421.512 144.066 420.224 144.805C418.925 145.543 416.853 145.204 414.522 143.885L340.583 101.751C331.987 96.8514 324.716 84.4359 324.716 74.6225C324.716 70.7749 325.868 67.8472 327.867 66.5885C328.688 66.0678 329.694 65.8136 330.81 65.8136C332.171 65.8136 333.728 66.1893 335.396 66.9508Z" fill="#173D7A"/>
<path d="M110.118 180.756L117.39 176.556C118.009 176.198 118.508 176.491 118.508 177.196V185.597C118.508 186.302 118.009 187.17 117.39 187.529L110.118 191.729C109.5 192.087 109 191.805 109 191.088V182.688C109 181.972 109.5 181.114 110.118 180.756Z" fill="#D4ECFF"/>
<path d="M109.293 191.783L111.041 191.121L112.039 191.696L110.324 192.38L109.293 191.783Z" fill="#173D7A"/>
<path d="M111.052 192.271L118.324 188.071C118.942 187.713 119.441 186.856 119.441 186.139V177.739C119.441 177.034 118.942 176.741 118.324 177.099L111.052 181.299C110.433 181.657 109.934 182.514 109.934 183.231V191.631C109.945 192.337 110.444 192.63 111.052 192.271Z" fill="#5793CE"/>
<path d="M117.836 178.803C117.836 179.052 118.01 179.15 118.227 179.02C118.444 178.9 118.607 178.596 118.607 178.358C118.607 178.108 118.433 178.01 118.227 178.141C117.999 178.26 117.836 178.553 117.836 178.803Z" fill="#173D7A"/>
<path d="M110.792 182.862C110.792 183.111 110.966 183.209 111.183 183.079C111.4 182.959 111.574 182.656 111.574 182.417C111.574 182.167 111.4 182.069 111.183 182.2C110.966 182.319 110.792 182.623 110.792 182.862Z" fill="#173D7A"/>
<path d="M117.836 186.845C117.836 187.094 118.01 187.192 118.227 187.062C118.444 186.942 118.607 186.639 118.607 186.389C118.607 186.139 118.433 186.042 118.227 186.172C117.999 186.302 117.836 186.606 117.836 186.845Z" fill="#173D7A"/>
<path d="M110.792 190.915C110.792 191.164 110.966 191.262 111.172 191.132C111.389 191.012 111.563 190.709 111.563 190.47C111.563 190.22 111.389 190.122 111.172 190.253C110.966 190.361 110.792 190.665 110.792 190.915Z" fill="#173D7A"/>
<path d="M113.039 185.64C113.039 186.693 113.777 187.127 114.688 186.595C115.6 186.063 116.338 184.783 116.338 183.73C116.338 182.677 115.6 182.243 114.688 182.775C113.787 183.296 113.039 184.587 113.039 185.64Z" fill="#3C3C3B"/>
<path d="M112.506 186.215C112.506 187.908 113.689 188.592 115.154 187.746C116.62 186.899 117.803 184.848 117.803 183.155C117.803 181.462 116.62 180.778 115.154 181.624C113.7 182.471 112.506 184.522 112.506 186.215Z" fill="#396CAA"/>
<path d="M124.684 188.842C125.226 188.842 125.715 188.494 125.877 187.952C126.073 187.29 125.693 186.595 125.042 186.4L115.676 183.611C115.013 183.415 114.493 183.795 114.297 184.457C114.102 185.119 114.297 185.814 114.959 186.009L124.325 188.798C124.445 188.831 124.564 188.842 124.684 188.842Z" fill="white"/>
<path d="M122.838 187.594C122.838 189.091 124.054 190.307 125.552 190.307C127.049 190.307 128.265 189.091 128.265 187.594C128.265 186.096 127.049 184.88 125.552 184.88C124.043 184.88 122.838 186.096 122.838 187.594Z" fill="#396CAA"/>
<path d="M126.182 186.639C126.747 186.639 127.257 186.259 127.398 185.683L129.482 177.055C129.644 176.382 129.232 175.709 128.559 175.547C127.886 175.384 127.213 175.796 127.05 176.469L124.967 185.097C124.804 185.77 125.216 186.443 125.889 186.606C125.987 186.628 126.084 186.639 126.182 186.639Z" fill="white"/>
<path d="M125.216 175.514C125.216 177.652 126.942 179.378 129.08 179.378C131.218 179.378 132.944 177.652 132.944 175.514C132.944 173.376 131.218 171.65 129.08 171.65C126.942 171.65 125.216 173.376 125.216 175.514Z" fill="#396CAA"/>
<path d="M148.3 172.193L126.051 159.354C125.085 158.8 123.75 158.876 122.274 159.723L147.399 174.223C148.549 174.885 149.678 173.3 148.669 172.454C148.658 172.443 148.658 172.443 148.647 172.432C148.604 172.399 148.56 172.356 148.506 172.323L148.473 172.356L148.3 172.193Z" fill="#396CAA"/>
<path d="M127.245 163.185C127.245 160.146 125.118 158.92 122.481 160.439C119.843 161.958 117.716 165.649 117.716 168.687C117.716 171.726 119.843 172.953 122.481 171.433C125.107 169.914 127.245 166.224 127.245 163.185Z" fill="#DADADA"/>
<path d="M125.85 160.1L119.116 171.764L138.975 183.231L145.71 171.567L125.85 160.1Z" fill="#DADADA"/>
<path d="M142.342 171.911C139.716 173.431 137.578 177.121 137.578 180.159C137.578 183.198 139.705 184.425 142.342 182.905C144.969 181.386 147.107 177.696 147.107 174.657C147.107 171.618 144.969 170.392 142.342 171.911ZM145.045 172.725C145.511 172.996 145.772 173.691 145.772 174.657C145.772 175.872 145.327 177.349 144.556 178.683C143.786 180.018 142.733 181.136 141.68 181.744C140.855 182.222 140.106 182.341 139.651 182.08C139.444 181.961 139.282 181.755 139.151 181.473C138.999 181.125 138.923 180.68 138.923 180.149C138.923 178.933 139.368 177.457 140.139 176.122C140.91 174.787 141.962 173.669 143.015 173.051C143.471 172.79 143.905 172.627 144.274 172.584C144.578 172.562 144.838 172.606 145.045 172.725Z" fill="#EDEDED"/>
<path d="M145.772 174.657C145.772 175.872 145.327 177.348 144.556 178.683C143.786 180.018 142.733 181.136 141.68 181.744C140.855 182.221 140.106 182.341 139.65 182.08C139.444 181.961 139.281 181.755 139.151 181.472C138.999 181.125 138.923 180.68 138.923 180.148C138.923 178.933 139.368 177.457 140.139 176.122C140.909 174.787 141.962 173.669 143.015 173.05C143.471 172.79 143.905 172.627 144.274 172.584C144.578 172.551 144.838 172.595 145.044 172.714C145.511 172.996 145.772 173.702 145.772 174.657Z" fill="#396CAA"/>
<path d="M144.274 172.595C143.905 172.638 143.471 172.79 143.015 173.061C142.982 173.083 142.939 173.105 142.906 173.126C142.646 173.289 142.385 173.474 142.125 173.691C141.387 174.32 140.692 175.167 140.139 176.122C139.585 177.077 139.205 178.108 139.032 179.063C138.967 179.389 138.934 179.714 138.934 180.018C138.934 180.062 138.934 180.105 138.934 180.148C138.934 180.68 139.021 181.125 139.162 181.473C139.618 181.57 140.226 181.44 140.877 181.082C141.919 180.517 142.939 179.454 143.677 178.162C144.415 176.882 144.827 175.46 144.806 174.277C144.773 173.539 144.589 172.942 144.274 172.595Z" fill="#D4ECFF"/>
<path d="M142.906 173.126C142.646 173.289 142.385 173.474 142.125 173.691C141.387 174.32 140.692 175.167 140.139 176.122C139.585 177.077 139.205 178.108 139.032 179.063C138.967 179.389 138.934 179.714 138.934 180.018C139.433 180.246 140.095 180.181 140.822 179.768C142.385 178.868 143.644 176.686 143.644 174.885C143.623 174.049 143.351 173.441 142.906 173.126Z" fill="#173D7A"/>
<path d="M142.126 173.691C141.388 174.32 140.693 175.167 140.14 176.122C139.586 177.077 139.206 178.108 139.033 179.063C139.434 179.324 139.999 179.302 140.628 178.933C141.844 178.227 142.82 176.534 142.82 175.134C142.81 174.418 142.549 173.908 142.126 173.691Z" fill="#173D7A"/>
<path opacity="0.5" d="M140.041 177.663C140.399 177.457 140.768 177.077 141.05 176.61L141.713 177.131C141.365 177.674 140.92 178.13 140.464 178.39C140.117 178.597 139.781 178.672 139.498 178.629L139.65 177.804C139.705 177.804 139.835 177.783 140.041 177.663Z" fill="#D4ECFF"/>
<path d="M119.582 167.515C119.387 167.396 119.289 167.103 119.365 166.843C119.441 166.593 119.669 166.474 119.864 166.593L136.936 176.448C137.132 176.567 137.229 176.86 137.153 177.12C137.077 177.381 136.85 177.489 136.654 177.381L119.582 167.515Z" fill="#C6C6C6"/>
<path d="M119.149 169.578C118.954 169.458 118.802 169.187 118.824 168.97C118.835 168.742 119.008 168.655 119.204 168.774L136.276 178.629C136.471 178.748 136.623 179.02 136.612 179.237C136.59 179.454 136.417 179.541 136.221 179.432L119.149 169.578Z" fill="#C6C6C6"/>
<path d="M126.268 159.473C126.192 159.43 126.127 159.397 126.062 159.354C125.096 158.8 123.761 158.876 122.285 159.723C120.798 160.58 119.463 162.034 118.497 163.706C117.781 164.965 117.26 166.332 117.043 167.667C116.923 168.416 117.281 169.176 117.944 169.556L134.679 179.215C136.676 180.365 139.259 179.606 140.247 177.511C140.399 177.185 140.572 176.86 140.757 176.545C141.723 174.874 143.058 173.409 144.534 172.562C146.01 171.705 147.345 171.629 148.311 172.193L126.268 159.473Z" fill="white"/>
<path d="M148.518 172.323L148.301 172.193C148.377 172.236 148.442 172.28 148.518 172.323Z" fill="#C6C6C6"/>
<path d="M135.146 177.706C134.885 177.555 134.603 177.674 134.506 177.956C134.408 178.238 134.538 178.596 134.799 178.738C135.059 178.889 135.341 178.77 135.439 178.488C135.537 178.206 135.406 177.858 135.146 177.706Z" fill="#173D7A"/>
<path d="M129.752 174.592C129.492 174.44 129.21 174.559 129.112 174.841C129.014 175.123 129.145 175.482 129.405 175.623C129.665 175.775 129.948 175.655 130.045 175.373C130.143 175.091 130.013 174.744 129.752 174.592Z" fill="#173D7A"/>
<path d="M124.358 171.477C124.097 171.325 123.815 171.444 123.717 171.726C123.62 172.009 123.75 172.367 124.01 172.508C124.271 172.66 124.553 172.54 124.651 172.258C124.748 171.976 124.618 171.629 124.358 171.477Z" fill="#173D7A"/>
<path d="M118.975 168.362C118.715 168.221 118.432 168.329 118.324 168.611C118.226 168.904 118.356 169.252 118.617 169.404C118.877 169.556 119.16 169.436 119.257 169.154C119.355 168.861 119.225 168.514 118.975 168.362Z" fill="#173D7A"/>
<path d="M402.944 280.756L395.672 276.556C395.054 276.197 394.554 276.49 394.554 277.196V285.597C394.554 286.303 395.054 287.17 395.672 287.528L402.944 291.728C403.562 292.086 404.062 291.793 404.062 291.088V282.688C404.062 281.971 403.562 281.114 402.944 280.756Z" fill="#D4ECFF"/>
<path d="M403.778 291.782L402.02 291.12L401.021 291.696L402.736 292.379L403.778 291.782Z" fill="#173D7A"/>
<path d="M402.01 292.271L394.739 288.071C394.12 287.713 393.621 286.855 393.621 286.139V277.738C393.621 277.033 394.12 276.74 394.739 277.098L402.01 281.298C402.629 281.656 403.128 282.514 403.128 283.23V291.631C403.117 292.336 402.618 292.629 402.01 292.271Z" fill="#5793CE"/>
<path d="M395.238 278.802C395.238 279.052 395.064 279.149 394.858 279.019C394.641 278.9 394.478 278.596 394.478 278.357C394.478 278.108 394.652 278.01 394.858 278.14C395.064 278.259 395.238 278.553 395.238 278.802Z" fill="#173D7A"/>
<path d="M402.27 282.861C402.27 283.111 402.096 283.209 401.89 283.078C401.673 282.959 401.51 282.655 401.51 282.416C401.51 282.167 401.684 282.069 401.89 282.188C402.096 282.319 402.27 282.623 402.27 282.861Z" fill="#173D7A"/>
<path d="M395.239 286.844C395.239 287.094 395.065 287.192 394.859 287.061C394.642 286.942 394.468 286.638 394.468 286.399C394.468 286.15 394.642 286.052 394.859 286.182C395.065 286.302 395.239 286.606 395.239 286.844Z" fill="#173D7A"/>
<path d="M402.27 290.915C402.27 291.165 402.097 291.263 401.89 291.132C401.673 291.013 401.5 290.709 401.5 290.47C401.5 290.232 401.673 290.123 401.89 290.253C402.097 290.362 402.27 290.666 402.27 290.915Z" fill="#173D7A"/>
<path d="M400.025 285.64C400.025 286.693 399.287 287.127 398.375 286.595C397.463 286.063 396.725 284.782 396.725 283.73C396.725 282.677 397.463 282.243 398.375 282.775C399.287 283.296 400.025 284.587 400.025 285.64Z" fill="#3C3C3B"/>
<path d="M400.555 286.216C400.555 287.909 399.372 288.593 397.907 287.746C396.441 286.9 395.258 284.848 395.258 283.155C395.258 281.462 396.441 280.779 397.907 281.625C399.372 282.472 400.555 284.523 400.555 286.216Z" fill="#396CAA"/>
<path d="M388.378 288.841C387.835 288.841 387.347 288.494 387.184 287.951C386.988 287.289 387.368 286.595 388.019 286.399L397.386 283.61C398.048 283.415 398.569 283.795 398.764 284.457C398.959 285.119 398.764 285.813 398.102 286.009L388.736 288.798C388.616 288.831 388.497 288.841 388.378 288.841Z" fill="white"/>
<path d="M390.234 287.593C390.234 289.091 389.018 290.307 387.521 290.307C386.023 290.307 384.807 289.091 384.807 287.593C384.807 286.096 386.023 284.88 387.521 284.88C389.018 284.88 390.234 286.096 390.234 287.593Z" fill="#396CAA"/>
<path d="M386.879 286.638C386.315 286.638 385.805 286.258 385.664 285.683L383.579 277.055C383.416 276.382 383.829 275.709 384.502 275.546C385.174 275.384 385.848 275.796 386.011 276.469L388.095 285.097C388.258 285.77 387.845 286.443 387.172 286.606C387.075 286.627 386.977 286.638 386.879 286.638Z" fill="white"/>
<path d="M387.845 275.515C387.845 277.653 386.12 279.378 383.981 279.378C381.843 279.378 380.118 277.653 380.118 275.515C380.118 273.377 381.843 271.651 383.981 271.651C386.12 271.651 387.845 273.387 387.845 275.515Z" fill="#396CAA"/>
<path d="M364.76 272.192L387.009 259.353C387.975 258.8 389.31 258.876 390.786 259.722L365.661 274.233C364.511 274.895 363.382 273.31 364.391 272.464C364.402 272.453 364.402 272.453 364.413 272.442C364.456 272.41 364.5 272.366 364.554 272.334L364.587 272.366L364.76 272.192Z" fill="#396CAA"/>
<path d="M385.816 263.184C385.816 260.146 387.943 258.919 390.581 260.439C393.207 261.958 395.345 265.648 395.345 268.687C395.345 271.726 393.218 272.952 390.581 271.433C387.954 269.913 385.816 266.223 385.816 263.184Z" fill="#DADADA"/>
<path d="M387.207 260.104L367.347 271.57L374.082 283.234L393.941 271.768L387.207 260.104Z" fill="#DADADA"/>
<path d="M365.956 274.657C365.956 277.695 368.083 281.385 370.72 282.905C373.358 284.424 375.485 283.187 375.485 280.159C375.485 277.12 373.358 273.43 370.72 271.911C368.083 270.391 365.956 271.618 365.956 274.657ZM368.788 272.594C369.157 272.638 369.591 272.79 370.047 273.061C371.1 273.669 372.153 274.787 372.923 276.133C373.694 277.467 374.139 278.933 374.139 280.159C374.139 280.691 374.063 281.136 373.911 281.483C373.792 281.765 373.618 281.972 373.412 282.091C372.945 282.362 372.207 282.232 371.382 281.754C370.329 281.147 369.277 280.029 368.506 278.694C367.736 277.359 367.291 275.883 367.291 274.667C367.291 273.712 367.551 273.007 368.018 272.736C368.224 272.605 368.484 272.562 368.788 272.594Z" fill="#EDEDED"/>
<path d="M367.292 274.656C367.292 275.872 367.737 277.348 368.507 278.683C369.278 280.018 370.33 281.136 371.383 281.743C372.208 282.221 372.957 282.34 373.413 282.08C373.619 281.96 373.781 281.754 373.911 281.472C374.063 281.125 374.14 280.68 374.14 280.148C374.14 278.932 373.695 277.456 372.924 276.121C372.154 274.786 371.101 273.669 370.048 273.05C369.592 272.79 369.158 272.627 368.789 272.583C368.485 272.551 368.225 272.594 368.019 272.714C367.552 272.996 367.292 273.701 367.292 274.656Z" fill="#396CAA"/>
<path d="M368.787 272.594C369.156 272.638 369.59 272.79 370.046 273.061C370.078 273.083 370.122 273.104 370.154 273.126C370.415 273.289 370.675 273.473 370.936 273.69C371.674 274.32 372.369 275.166 372.922 276.121C373.476 277.077 373.855 278.108 374.029 279.063C374.094 279.388 374.127 279.714 374.138 280.018C374.138 280.061 374.138 280.105 374.138 280.148C374.138 280.68 374.062 281.125 373.91 281.472C373.454 281.57 372.846 281.44 372.195 281.081C371.153 280.517 370.133 279.453 369.395 278.162C368.657 276.881 368.244 275.459 368.266 274.276C368.288 273.538 368.472 272.942 368.787 272.594Z" fill="#D4ECFF"/>
<path d="M369.439 274.884C369.439 276.686 370.698 278.867 372.261 279.768C372.988 280.191 373.65 280.256 374.149 280.018C374.138 279.714 374.106 279.388 374.041 279.063C373.867 278.108 373.487 277.087 372.934 276.121C372.38 275.166 371.686 274.32 370.948 273.69C370.687 273.473 370.427 273.278 370.166 273.126C369.71 273.441 369.439 274.048 369.439 274.884Z" fill="#5793CE"/>
<path d="M370.948 273.69C371.686 274.32 372.381 275.166 372.934 276.121C373.488 277.076 373.868 278.108 374.041 279.063C373.64 279.323 373.075 279.301 372.446 278.932C371.23 278.227 370.253 276.534 370.253 275.134C370.253 274.417 370.525 273.907 370.948 273.69Z" fill="#173D7A"/>
<path opacity="0.5" d="M373.021 277.663C372.662 277.456 372.293 277.077 372.011 276.61L371.349 277.12C371.697 277.663 372.141 278.118 372.597 278.379C372.945 278.585 373.281 278.661 373.563 278.618L373.411 277.793C373.357 277.804 373.227 277.782 373.021 277.663Z" fill="#EDEDED"/>
<path d="M393.479 267.515C393.675 267.396 393.773 267.103 393.697 266.842C393.621 266.592 393.393 266.473 393.197 266.592L376.125 276.447C375.93 276.567 375.832 276.86 375.908 277.12C375.984 277.381 376.212 277.489 376.407 277.381L393.479 267.515Z" fill="#C6C6C6"/>
<path d="M393.913 269.577C394.108 269.458 394.26 269.186 394.25 268.969C394.239 268.752 394.054 268.665 393.859 268.774L376.787 278.629C376.591 278.748 376.439 279.019 376.45 279.236C376.461 279.453 376.646 279.54 376.841 279.432L393.913 269.577Z" fill="#C6C6C6"/>
<path d="M386.803 259.473C386.879 259.44 386.944 259.397 387.009 259.353C387.975 258.8 389.31 258.876 390.786 259.722C392.262 260.569 393.597 262.034 394.563 263.706C395.29 264.965 395.8 266.332 396.018 267.656C396.137 268.416 395.779 269.165 395.117 269.545L378.381 279.204C376.384 280.354 373.801 279.595 372.813 277.511C372.662 277.185 372.488 276.86 372.303 276.545C371.337 274.873 370.003 273.408 368.526 272.562C367.05 271.704 365.716 271.628 364.75 272.193L386.803 259.473Z" fill="white"/>
<path d="M364.544 272.323L364.761 272.193C364.685 272.236 364.619 272.279 364.544 272.323Z" fill="#C6C6C6"/>
<path d="M377.915 277.706C378.175 277.554 378.458 277.674 378.555 277.956C378.653 278.238 378.523 278.596 378.262 278.737C378.002 278.889 377.72 278.77 377.622 278.488C377.524 278.205 377.654 277.858 377.915 277.706Z" fill="#173D7A"/>
<path d="M383.309 274.591C383.57 274.439 383.852 274.559 383.95 274.841C384.047 275.123 383.917 275.481 383.657 275.622C383.396 275.774 383.114 275.655 383.016 275.373C382.919 275.091 383.049 274.743 383.309 274.591Z" fill="#173D7A"/>
<path d="M388.705 271.476C388.965 271.324 389.248 271.444 389.345 271.726C389.443 272.008 389.313 272.366 389.052 272.507C388.792 272.659 388.51 272.541 388.412 272.259C388.314 271.977 388.444 271.628 388.705 271.476Z" fill="#173D7A"/>
<path d="M394.087 268.362C394.348 268.21 394.63 268.33 394.727 268.612C394.825 268.894 394.695 269.251 394.434 269.392C394.174 269.544 393.892 269.425 393.794 269.143C393.707 268.861 393.837 268.514 394.087 268.362Z" fill="#173D7A"/>
<path d="M140.64 357.709C140.64 362.941 144.449 367.271 149.442 368.107C149.485 368.117 149.528 368.117 149.572 368.128H149.583C150.104 368.204 150.635 368.248 151.178 368.248C152.437 368.248 153.653 368.031 154.781 367.618C158.83 366.153 161.716 362.268 161.716 357.709C161.716 351.892 156.995 347.171 151.178 347.171C145.361 347.171 140.64 351.892 140.64 357.709Z" fill="#D4ECFF"/>
<path d="M149.583 368.128C150.104 368.204 150.636 368.248 151.178 368.248C152.437 368.248 153.653 368.031 154.782 367.618C157.213 366.381 158.819 363.809 159.59 361.291C159.492 361.345 159.405 361.41 159.307 361.465C157.875 362.289 154.923 363.017 153.099 363.31C152.448 365.979 150.853 368.259 149.583 368.128Z" fill="#5793CE"/>
<path d="M153.468 365.122C152.991 366.055 153.327 366.804 154.217 366.804C155.107 366.804 156.203 366.044 156.681 365.122C157.158 364.188 156.822 363.44 155.932 363.44C155.042 363.429 153.946 364.188 153.468 365.122Z" fill="white"/>
<path d="M153.99 365.122C153.675 365.751 153.892 366.261 154.489 366.261C155.086 366.261 155.824 365.751 156.149 365.122C156.464 364.492 156.247 363.982 155.65 363.982C155.053 363.982 154.315 364.492 153.99 365.122Z" fill="#173D7A"/>
<path d="M157.3 363.364C157.224 363.581 157.322 363.755 157.539 363.755C157.756 363.755 157.984 363.581 158.071 363.364C158.146 363.147 158.049 362.973 157.832 362.973C157.615 362.973 157.376 363.147 157.3 363.364Z" fill="#9C4236"/>
<path d="M163.354 352.174H139V356.732H163.354V352.174Z" fill="#DADADA"/>
<path d="M142.266 361.269C142.364 361.334 142.462 361.388 142.57 361.453C144.09 362.333 145.913 362.929 147.845 363.244C150.026 363.602 152.349 363.602 154.53 363.244C156.462 362.929 158.286 362.333 159.805 361.453C159.903 361.399 160.011 361.334 160.109 361.269C164.559 358.512 164.461 354.193 159.805 351.501C159.523 351.338 159.241 351.186 158.937 351.045C157.45 350.34 155.746 349.862 153.966 349.624C152.143 349.385 150.243 349.385 148.42 349.624C146.629 349.862 144.915 350.34 143.428 351.045C143.135 351.186 142.842 351.338 142.57 351.501C137.914 354.193 137.817 358.512 142.266 361.269Z" fill="white"/>
<path d="M151.177 359.066C157.903 359.066 163.354 355.917 163.354 352.033C163.354 348.149 157.903 345 151.177 345C144.452 345 139 348.149 139 352.033C139 355.917 144.452 359.066 151.177 359.066Z" fill="#D4ECFF"/>
<path d="M151.177 357.351C154.086 357.351 156.919 356.689 158.926 355.517C160.652 354.518 161.64 353.249 161.64 352.033C161.64 350.817 160.652 349.548 158.926 348.549C156.908 347.388 154.086 346.715 151.177 346.715C148.269 346.715 145.436 347.377 143.428 348.549C141.703 349.548 140.715 350.817 140.715 352.033C140.715 353.249 141.703 354.518 143.428 355.517C145.436 356.678 148.269 357.351 151.177 357.351Z" fill="#5793CE"/>
<defs>
<radialGradient id="paint0_radial" cx="0" cy="0" r="1" gradientUnits="userSpaceOnUse" gradientTransform="translate(375.293 202.286) scale(38.0392 37.5374)">
<stop stop-color="#274F89"/>
<stop offset="1" stop-color="#173D7A"/>
</radialGradient>
<linearGradient id="paint1_linear" x1="352.186" y1="188.665" x2="419.497" y2="188.665" gradientUnits="userSpaceOnUse">
<stop stop-color="#D4ECFF"/>
<stop offset="0.2385" stop-color="#D0EAFE"/>
<stop offset="0.4599" stop-color="#C5E2F9"/>
<stop offset="0.6745" stop-color="#B2D6F2"/>
<stop offset="0.8837" stop-color="#98C4E7"/>
<stop offset="1" stop-color="#86B8E0"/>
</linearGradient>
<radialGradient id="paint2_radial" cx="0" cy="0" r="1" gradientUnits="userSpaceOnUse" gradientTransform="translate(320.604 163.442) scale(68.7594 67.8524)">
<stop stop-color="#699DD1"/>
<stop offset="0.2662" stop-color="#6396CC"/>
<stop offset="0.6412" stop-color="#5184BD"/>
<stop offset="1" stop-color="#396CAA"/>
</radialGradient>
<radialGradient id="paint3_radial" cx="0" cy="0" r="1" gradientUnits="userSpaceOnUse" gradientTransform="translate(207.604 197.396) scale(136.872 135.066)">
<stop stop-color="#396CAA"/>
<stop offset="1" stop-color="#274F89"/>
</radialGradient>
<linearGradient id="paint4_linear" x1="164.551" y1="101.578" x2="291.254" y2="179.808" gradientUnits="userSpaceOnUse">
<stop stop-color="#D4ECFF"/>
<stop offset="0.2385" stop-color="#D0EAFE"/>
<stop offset="0.4599" stop-color="#C5E2F9"/>
<stop offset="0.6745" stop-color="#B2D6F2"/>
<stop offset="0.8837" stop-color="#98C4E7"/>
<stop offset="1" stop-color="#86B8E0"/>
</linearGradient>
<linearGradient id="paint5_linear" x1="160.855" y1="212.69" x2="221.548" y2="203.172" gradientUnits="userSpaceOnUse">
<stop stop-color="#3919BB"/>
<stop offset="1" stop-color="#6507FA"/>
</linearGradient>
<linearGradient id="paint6_linear" x1="160.855" y1="212.69" x2="221.548" y2="203.172" gradientUnits="userSpaceOnUse">
<stop stop-color="#3919BB"/>
<stop offset="1" stop-color="#6507FA"/>
</linearGradient>
<radialGradient id="paint7_radial" cx="0" cy="0" r="1" gradientUnits="userSpaceOnUse" gradientTransform="translate(321.795 323.813) scale(49.2852 48.6351)">
<stop stop-color="#699DD1"/>
<stop offset="0.2662" stop-color="#6396CC"/>
<stop offset="0.6412" stop-color="#5184BD"/>
<stop offset="1" stop-color="#396CAA"/>
</radialGradient>
<linearGradient id="paint8_linear" x1="331.098" y1="308.22" x2="407.757" y2="354.534" gradientUnits="userSpaceOnUse">
<stop stop-color="#D4ECFF"/>
<stop offset="0.2009" stop-color="#D0EAFE"/>
<stop offset="0.3874" stop-color="#C5E2F9"/>
<stop offset="0.5682" stop-color="#B2D6F2"/>
<stop offset="0.7444" stop-color="#98C4E7"/>
<stop offset="0.8423" stop-color="#86B8E0"/>
</linearGradient>
<radialGradient id="paint9_radial" cx="0" cy="0" r="1" gradientUnits="userSpaceOnUse" gradientTransform="translate(49.4763 259.584) scale(49.2852 48.6351)">
<stop stop-color="#699DD1"/>
<stop offset="0.2662" stop-color="#6396CC"/>
<stop offset="0.6412" stop-color="#5184BD"/>
<stop offset="1" stop-color="#396CAA"/>
</radialGradient>
<linearGradient id="paint10_linear" x1="58.7782" y1="243.991" x2="135.438" y2="290.305" gradientUnits="userSpaceOnUse">
<stop stop-color="#D4ECFF"/>
<stop offset="0.2009" stop-color="#D0EAFE"/>
<stop offset="0.3874" stop-color="#C5E2F9"/>
<stop offset="0.5682" stop-color="#B2D6F2"/>
<stop offset="0.7444" stop-color="#98C4E7"/>
<stop offset="0.8423" stop-color="#86B8E0"/>
</linearGradient>
</defs>
</svg>
