<svg width="470" height="440" viewBox="0 0 470 440" fill="none" xmlns="http://www.w3.org/2000/svg">
<g opacity="0.2">
<path opacity="0.4" d="M405.294 124.08L369.942 103.945L405.282 83.8098L405.599 83.9882L440.634 103.945L405.294 124.08ZM372.45 103.945L405.294 122.653L438.137 103.945L405.294 85.2369L372.45 103.945Z" fill="#B3E0FF"/>
<path opacity="0.4" d="M337.098 124.08L301.758 103.945L337.098 83.8098L372.439 103.945L337.098 124.08ZM304.255 103.945L337.098 122.653L369.942 103.945L337.098 85.2369L304.255 103.945Z" fill="#B3E0FF"/>
<path opacity="0.4" d="M371.196 143.513L370.88 143.335L335.845 123.378L371.185 103.243L406.537 123.378L371.196 143.513ZM338.353 123.367L371.196 142.075L404.04 123.367L371.196 104.659L338.353 123.367Z" fill="#B3E0FF"/>
<path opacity="0.4" d="M405.294 162.935L404.977 162.756L369.942 142.799L405.282 122.664L405.599 122.843L440.634 142.799L405.294 162.935ZM372.45 142.799L405.294 161.507L438.137 142.799L405.294 124.091L372.45 142.799Z" fill="#B3E0FF"/>
<path opacity="0.4" d="M268.915 124.08L268.598 123.902L233.563 103.945L268.903 83.8098L269.22 83.9882L304.255 103.945L268.915 124.08ZM236.071 103.945L268.915 122.653L301.758 103.945L268.915 85.2369L236.071 103.945Z" fill="#B3E0FF"/>
<path opacity="0.4" d="M303.012 143.513L267.672 123.378L303.012 103.243L338.353 123.378L303.012 143.513ZM270.169 123.367L303.012 142.075L335.856 123.367L303.012 104.659L270.169 123.367Z" fill="#B3E0FF"/>
<path opacity="0.4" d="M337.099 162.935L336.782 162.756L301.747 142.799L337.087 122.664L337.404 122.843L372.439 142.799L337.099 162.935ZM304.255 142.799L337.099 161.507L369.942 142.799L337.099 124.091L304.255 142.799Z" fill="#B3E0FF"/>
<path opacity="0.4" d="M371.196 182.356L370.88 182.178L335.845 162.221L371.185 142.086L371.501 142.264L406.537 162.221L371.196 182.356ZM338.353 162.221L371.196 180.929L404.04 162.221L371.196 143.513L338.353 162.221Z" fill="#B3E0FF"/>
<path opacity="0.4" d="M405.294 201.778L404.977 201.6L369.942 181.643L405.282 161.508L440.634 181.643L405.294 201.778ZM372.45 181.643L405.294 200.351L438.137 181.643L405.294 162.935L372.45 181.643Z" fill="#B3E0FF"/>
<path opacity="0.4" d="M200.719 124.08L200.403 123.902L165.368 103.945L200.708 83.8098L201.024 83.9882L236.06 103.945L200.719 124.08ZM167.876 103.945L200.719 122.653L233.563 103.945L200.719 85.2369L167.876 103.945Z" fill="#B3E0FF"/>
<path opacity="0.4" d="M234.817 143.502L234.501 143.323L199.465 123.367L234.806 103.231L235.122 103.41L270.157 123.367L234.817 143.502ZM201.974 123.367L234.817 142.075L267.661 123.367L234.817 104.659L201.974 123.367Z" fill="#B3E0FF"/>
<path opacity="0.4" d="M268.915 162.935L268.598 162.756L233.563 142.799L268.903 122.664L304.244 142.799L268.915 162.935ZM236.071 142.788L268.915 161.496L301.758 142.788L268.915 124.08L236.071 142.788Z" fill="#B3E0FF"/>
<path opacity="0.4" d="M303.012 182.356L267.672 162.221L303.012 142.086L303.329 142.264L338.364 162.221L303.012 182.356ZM270.169 162.221L303.012 180.929L335.856 162.221L303.012 143.513L270.169 162.221Z" fill="#B3E0FF"/>
<path opacity="0.4" d="M337.099 201.778L336.782 201.6L301.747 181.643L337.087 161.508L337.404 161.686L372.439 181.643L337.099 201.778ZM304.255 181.643L337.099 200.351L369.942 181.643L337.099 162.935L304.255 181.643Z" fill="#B3E0FF"/>
<path opacity="0.4" d="M371.196 221.211L370.88 221.032L335.845 201.075L371.185 180.94L371.501 181.119L406.537 201.075L371.196 221.211ZM338.353 201.064L371.196 219.772L404.04 201.064L371.196 182.356L338.353 201.064Z" fill="#B3E0FF"/>
<path opacity="0.4" d="M405.294 240.632L404.977 240.454L369.942 220.497L405.282 200.362L405.599 200.54L440.634 220.497L405.294 240.632ZM372.45 220.497L405.294 239.205L438.137 220.497L405.294 201.789L372.45 220.497Z" fill="#B3E0FF"/>
<path opacity="0.4" d="M132.536 124.08L132.219 123.902L97.1841 103.945L132.524 83.8098L132.841 83.9882L167.876 103.945L132.536 124.08ZM99.6923 103.945L132.536 122.653L165.379 103.945L132.536 85.2369L99.6923 103.945Z" fill="#B3E0FF"/>
<path opacity="0.4" d="M166.633 143.502L131.282 123.367L166.622 103.231L166.938 103.41L201.974 123.367L166.633 143.502ZM133.79 123.367L166.633 142.075L199.477 123.367L166.633 104.659L133.79 123.367Z" fill="#B3E0FF"/>
<path opacity="0.4" d="M200.731 162.935L200.414 162.756L165.379 142.799L200.719 122.664L201.036 122.843L236.071 142.799L200.731 162.935ZM167.876 142.788L200.719 161.496L233.563 142.788L200.719 124.08L167.876 142.788Z" fill="#B3E0FF"/>
<path opacity="0.4" d="M234.817 182.356L234.501 182.178L199.465 162.221L234.806 142.086L235.122 142.264L270.157 162.221L234.817 182.356ZM201.974 162.221L234.817 180.929L267.661 162.221L234.817 143.513L201.974 162.221Z" fill="#B3E0FF"/>
<path opacity="0.4" d="M268.915 201.778L233.574 181.643L268.915 161.508L304.255 181.643L268.915 201.778ZM236.071 181.643L268.915 200.351L301.758 181.643L268.915 162.935L236.071 181.643Z" fill="#B3E0FF"/>
<path opacity="0.4" d="M303.013 221.211L302.696 221.032L267.661 201.075L303.002 180.94L303.318 181.119L338.353 201.075L303.013 221.211ZM270.169 201.064L303.013 219.772L335.856 201.064L303.013 182.356L270.169 201.064Z" fill="#B3E0FF"/>
<path opacity="0.4" d="M337.099 240.632L301.747 220.497L337.087 200.362L337.404 200.54L372.439 220.497L337.099 240.632ZM304.255 220.497L337.099 239.205L369.942 220.497L337.099 201.789L304.255 220.497Z" fill="#B3E0FF"/>
<path opacity="0.4" d="M371.196 260.054L370.88 259.876L335.845 239.919L371.185 219.784L371.501 219.962L406.537 239.919L371.196 260.054ZM338.353 239.919L371.196 258.627L404.04 239.919L371.196 221.211L338.353 239.919Z" fill="#B3E0FF"/>
<path opacity="0.4" d="M405.294 279.487L404.977 279.308L369.942 259.352L405.282 239.216L405.599 239.395L440.634 259.352L405.294 279.487ZM372.45 259.34L405.294 278.048L438.137 259.34L405.294 240.632L372.45 259.34Z" fill="#B3E0FF"/>
<path opacity="0.4" d="M64.3517 124.08L64.0353 123.902L29 103.945L64.3404 83.8098L64.6567 83.9882L99.6921 103.945L64.3517 124.08ZM31.4969 103.945L64.3404 122.653L97.1839 103.945L64.3404 85.2369L31.4969 103.945Z" fill="#B3E0FF"/>
<path opacity="0.4" d="M98.4381 143.502L98.1218 143.323L63.0864 123.367L98.4268 103.231L98.7432 103.41L133.778 123.367L98.4381 143.502ZM65.5946 123.367L98.4381 142.075L131.282 123.367L98.4381 104.659L65.5946 123.367Z" fill="#B3E0FF"/>
<path opacity="0.4" d="M132.536 162.935L132.219 162.756L97.1841 142.799L132.524 122.664L167.876 142.799L132.536 162.935ZM99.6923 142.788L132.536 161.496L165.379 142.788L132.536 124.08L99.6923 142.788Z" fill="#B3E0FF"/>
<path opacity="0.4" d="M166.633 182.356L131.282 162.221L166.622 142.086L166.938 142.264L201.974 162.221L166.633 182.356ZM133.79 162.221L166.633 180.929L199.477 162.221L166.633 143.513L133.79 162.221Z" fill="#B3E0FF"/>
<path opacity="0.4" d="M200.731 201.778L200.414 201.6L165.379 181.643L200.719 161.508L201.036 161.686L236.071 181.643L200.731 201.778ZM167.887 181.643L200.731 200.351L233.574 181.643L200.731 162.935L167.887 181.643Z" fill="#B3E0FF"/>
<path opacity="0.4" d="M234.817 221.211L199.477 201.075L234.817 180.94L270.157 201.075L234.817 221.211ZM201.973 201.064L234.817 219.772L267.66 201.064L234.817 182.356L201.973 201.064Z" fill="#B3E0FF"/>
<path opacity="0.4" d="M268.915 240.632L268.598 240.454L233.563 220.497L268.903 200.362L269.22 200.54L304.255 220.497L268.915 240.632ZM236.071 220.497L268.915 239.205L301.758 220.497L268.915 201.789L236.071 220.497Z" fill="#B3E0FF"/>
<path opacity="0.4" d="M303.013 260.054L302.696 259.876L267.661 239.919L303.002 219.784L338.353 239.919L303.013 260.054ZM270.169 239.919L303.013 258.627L335.856 239.919L303.013 221.211L270.169 239.919Z" fill="#B3E0FF"/>
<path opacity="0.4" d="M337.11 279.487L301.758 259.352L337.098 239.216L337.415 239.395L372.45 259.352L337.11 279.487ZM304.266 259.34L337.11 278.048L369.953 259.34L337.11 240.632L304.266 259.34Z" fill="#B3E0FF"/>
<path opacity="0.4" d="M371.196 298.908L370.88 298.73L335.845 278.773L371.185 258.638L371.501 258.816L406.537 278.773L371.196 298.908ZM338.353 278.773L371.196 297.481L404.04 278.773L371.196 260.065L338.353 278.773Z" fill="#B3E0FF"/>
<path opacity="0.4" d="M405.294 318.33L404.977 318.152L369.942 298.195L405.282 278.06L405.599 278.238L440.634 298.195L405.294 318.33ZM372.45 298.195L405.294 316.903L438.137 298.195L405.294 279.487L372.45 298.195Z" fill="#B3E0FF"/>
<path opacity="0.4" d="M64.3517 162.935L64.0353 162.756L29 142.799L64.3404 122.664L64.6567 122.843L99.6921 142.799L64.3517 162.935ZM31.5082 142.788L64.3517 161.496L97.1952 142.788L64.3517 124.08L31.5082 142.788Z" fill="#B3E0FF"/>
<path opacity="0.4" d="M98.4381 182.356L98.1218 182.178L63.0864 162.221L98.4268 142.086L98.7432 142.264L133.778 162.221L98.4381 182.356ZM65.5946 162.221L98.4381 180.929L131.282 162.221L98.4381 143.513L65.5946 162.221Z" fill="#B3E0FF"/>
<path opacity="0.4" d="M132.536 201.778L132.219 201.6L97.1841 181.643L132.524 161.508L167.876 181.643L132.536 201.778ZM99.6923 181.643L132.536 200.351L165.379 181.643L132.536 162.935L99.6923 181.643Z" fill="#B3E0FF"/>
<path opacity="0.4" d="M166.633 221.199L166.317 221.021L131.282 201.064L166.622 180.929L166.938 181.108L201.974 201.064L166.633 221.199ZM133.79 201.064L166.633 219.772L199.477 201.064L166.633 182.356L133.79 201.064Z" fill="#B3E0FF"/>
<path opacity="0.4" d="M200.731 240.632L165.379 220.497L200.719 200.362L236.06 220.497L200.731 240.632ZM167.887 220.497L200.731 239.205L233.574 220.497L200.731 201.789L167.887 220.497Z" fill="#B3E0FF"/>
<path opacity="0.4" d="M234.817 260.054L199.477 239.919L234.817 219.784L235.133 219.962L270.169 239.919L234.817 260.054ZM201.973 239.919L234.817 258.627L267.66 239.919L234.817 221.211L201.973 239.919Z" fill="#B3E0FF"/>
<path opacity="0.4" d="M268.915 279.476L268.598 279.297L233.563 259.34L268.903 239.205L269.22 239.384L304.255 259.34L268.915 279.476ZM236.071 259.34L268.915 278.048L301.758 259.34L268.915 240.632L236.071 259.34Z" fill="#B3E0FF"/>
<path opacity="0.4" d="M303.013 298.908L302.696 298.73L267.661 278.773L303.002 258.638L338.353 278.773L303.013 298.908ZM270.169 278.762L303.013 297.47L335.856 278.762L303.013 260.054L270.169 278.762Z" fill="#B3E0FF"/>
<path opacity="0.4" d="M337.11 318.33L336.793 318.152L301.758 298.195L337.098 278.06L337.415 278.238L372.45 298.195L337.11 318.33ZM304.266 298.195L337.11 316.903L369.953 298.195L337.11 279.487L304.266 298.195Z" fill="#B3E0FF"/>
<path opacity="0.4" d="M371.196 337.752L335.845 317.616L371.185 297.481L371.501 297.66L406.537 317.616L371.196 337.752ZM338.353 317.616L371.196 336.324L404.04 317.616L371.196 298.908L338.353 317.616Z" fill="#B3E0FF"/>
<path opacity="0.4" d="M405.294 357.184L404.977 357.006L369.942 337.049L405.282 316.914L405.599 317.092L440.634 337.049L405.294 357.184ZM372.45 337.038L405.294 355.746L438.137 337.038L405.294 318.33L372.45 337.038Z" fill="#B3E0FF"/>
<path opacity="0.4" d="M64.3517 201.778L29 181.643L64.3404 161.508L64.6567 161.686L99.6921 181.643L64.3517 201.778ZM31.5082 181.643L64.3517 200.351L97.1952 181.643L64.3517 162.935L31.5082 181.643Z" fill="#B3E0FF"/>
<path opacity="0.4" d="M98.4381 221.199L98.1218 221.021L63.0864 201.064L98.4268 180.929L98.7432 181.108L133.778 201.064L98.4381 221.199ZM65.5946 201.064L98.4381 219.772L131.282 201.064L98.4381 182.356L65.5946 201.064Z" fill="#B3E0FF"/>
<path opacity="0.4" d="M132.536 240.632L132.219 240.454L97.1841 220.497L132.524 200.362L132.841 200.54L167.876 220.497L132.536 240.632ZM99.6923 220.497L132.536 239.205L165.379 220.497L132.536 201.789L99.6923 220.497Z" fill="#B3E0FF"/>
<path opacity="0.4" d="M166.633 260.054L166.317 259.876L131.282 239.919L166.622 219.784L201.974 239.919L166.633 260.054ZM133.79 239.919L166.633 258.627L199.477 239.919L166.633 221.211L133.79 239.919Z" fill="#B3E0FF"/>
<path opacity="0.4" d="M200.731 279.476L165.39 259.34L200.731 239.205L236.071 259.34L200.731 279.476ZM167.887 259.34L200.731 278.048L233.574 259.34L200.731 240.632L167.887 259.34Z" fill="#B3E0FF"/>
<path opacity="0.4" d="M234.817 298.908L199.465 278.773L234.806 258.638L235.122 258.816L270.157 278.773L234.817 298.908ZM201.974 278.762L234.817 297.47L267.661 278.762L234.817 260.054L201.974 278.762Z" fill="#B3E0FF"/>
<path opacity="0.4" d="M268.915 318.33L268.598 318.152L233.563 298.195L268.903 278.06L269.22 278.238L304.255 298.195L268.915 318.33ZM236.071 298.195L268.915 316.903L301.758 298.195L268.915 279.487L236.071 298.195Z" fill="#B3E0FF"/>
<path opacity="0.4" d="M303.013 337.752L302.696 337.573L267.661 317.616L303.002 297.481L303.318 297.66L338.353 317.616L303.013 337.752ZM270.169 317.616L303.013 336.324L335.856 317.616L303.013 298.908L270.169 317.616Z" fill="#B3E0FF"/>
<path opacity="0.4" d="M337.11 357.184L336.793 357.006L301.758 337.049L337.098 316.914L372.45 337.049L337.11 357.184ZM304.266 337.038L337.11 355.746L369.953 337.038L337.11 318.33L304.266 337.038Z" fill="#B3E0FF"/>
<path opacity="0.4" d="M64.3517 240.632L29 220.497L64.3404 200.362L64.6567 200.54L99.6921 220.497L64.3517 240.632ZM31.5082 220.486L64.3517 239.194L97.1952 220.486L64.3517 201.778L31.5082 220.486Z" fill="#B3E0FF"/>
<path opacity="0.4" d="M98.4493 260.054L98.133 259.876L63.0977 239.919L98.438 219.784L98.7544 219.962L133.79 239.919L98.4493 260.054ZM65.6058 239.919L98.4493 258.627L131.293 239.919L98.4493 221.211L65.6058 239.919Z" fill="#B3E0FF"/>
<path opacity="0.4" d="M132.536 279.476L132.219 279.297L97.1841 259.34L132.524 239.205L132.841 239.384L167.876 259.34L132.536 279.476ZM99.6923 259.34L132.536 278.048L165.379 259.34L132.536 240.632L99.6923 259.34Z" fill="#B3E0FF"/>
<path opacity="0.4" d="M166.633 298.908L131.293 278.773L166.633 258.638L201.974 278.773L166.633 298.908ZM133.79 278.762L166.633 297.47L199.477 278.762L166.633 260.054L133.79 278.762Z" fill="#B3E0FF"/>
<path opacity="0.4" d="M200.731 318.33L200.414 318.152L165.379 298.195L200.719 278.06L236.071 298.195L200.731 318.33ZM167.887 298.195L200.731 316.903L233.574 298.195L200.731 279.487L167.887 298.195Z" fill="#B3E0FF"/>
<path opacity="0.4" d="M234.828 337.752L199.477 317.616L234.817 297.481L235.133 297.66L270.169 317.616L234.828 337.752ZM201.985 317.616L234.828 336.324L267.672 317.616L234.828 298.908L201.985 317.616Z" fill="#B3E0FF"/>
<path opacity="0.4" d="M268.915 357.184L268.598 357.006L233.563 337.049L268.903 316.914L269.22 317.092L304.255 337.049L268.915 357.184ZM236.071 337.038L268.915 355.746L301.758 337.038L268.915 318.33L236.071 337.038Z" fill="#B3E0FF"/>
<path opacity="0.4" d="M64.3517 279.476L64.0353 279.297L29 259.34L64.3404 239.205L64.6567 239.384L99.6921 259.34L64.3517 279.476ZM31.5082 259.34L64.3517 278.048L97.1952 259.34L64.3517 240.632L31.5082 259.34Z" fill="#B3E0FF"/>
<path opacity="0.4" d="M98.4493 298.908L63.0977 278.773L98.438 258.638L98.7544 258.816L133.79 278.773L98.4493 298.908ZM65.6058 278.762L98.4493 297.47L131.293 278.762L98.4493 260.054L65.6058 278.762Z" fill="#B3E0FF"/>
<path opacity="0.4" d="M132.536 318.33L132.219 318.152L97.1841 298.195L132.524 278.06L167.865 298.195L132.536 318.33ZM99.6923 298.195L132.536 316.903L165.379 298.195L132.536 279.487L99.6923 298.195Z" fill="#B3E0FF"/>
<path opacity="0.4" d="M166.633 337.752L131.293 317.616L166.633 297.481L166.95 297.66L201.985 317.616L166.633 337.752ZM133.79 317.616L166.633 336.324L199.477 317.616L166.633 298.908L133.79 317.616Z" fill="#B3E0FF"/>
<path opacity="0.4" d="M200.731 357.173L200.414 356.995L165.379 337.038L200.719 316.903L236.071 337.038L200.731 357.173ZM167.887 337.038L200.731 355.746L233.574 337.038L200.731 318.33L167.887 337.038Z" fill="#B3E0FF"/>
<path opacity="0.4" d="M64.3517 318.33L64.0353 318.152L29 298.195L64.3404 278.06L99.6921 298.195L64.3517 318.33ZM31.5082 298.195L64.3517 316.903L97.1952 298.195L64.3517 279.487L31.5082 298.195Z" fill="#B3E0FF"/>
<path opacity="0.4" d="M98.4493 337.752L98.133 337.573L63.0977 317.616L98.438 297.481L98.7544 297.66L133.79 317.616L98.4493 337.752ZM65.6058 317.616L98.4493 336.324L131.293 317.616L98.4493 298.908L65.6058 317.616Z" fill="#B3E0FF"/>
<path opacity="0.4" d="M132.535 357.173L97.1948 337.038L132.535 316.903L167.876 337.038L132.535 357.173ZM99.703 337.038L132.547 355.746L165.39 337.038L132.547 318.33L99.703 337.038Z" fill="#B3E0FF"/>
<path opacity="0.4" d="M64.3517 357.173L64.0353 356.995L29 337.038L64.3404 316.903L64.6567 317.081L99.6921 337.038L64.3517 357.173ZM31.5082 337.038L64.3517 355.746L97.1952 337.038L64.3517 318.33L31.5082 337.038Z" fill="#B3E0FF"/>
</g>
<path d="M365.498 99.0102L357.62 103.566V104.673L365.498 100.118V99.0102ZM377.236 92.2216L366.981 98.1527V99.2603L377.236 93.3292V92.2216ZM362.14 103.941L357.62 106.549V107.657L362.14 105.048V103.941ZM370.894 98.8851L363.623 103.083V104.191L370.894 99.9927V98.8851ZM372.359 99.1352L377.254 96.3126V95.205L372.359 98.0276V99.1352ZM365.498 104.977L357.62 109.533V110.64L365.498 106.085V104.977ZM377.236 98.2063L366.981 104.137V105.245L377.236 99.3139V98.2063ZM362.14 109.908L357.62 112.516V113.624L362.14 111.015V109.908ZM363.623 110.158L370.894 105.96V104.852L363.623 109.05V110.158ZM372.359 105.102L377.254 102.279V101.19L372.359 104.012V105.102ZM365.498 110.944L357.62 115.499V116.607L365.498 112.051V110.944ZM377.236 104.173L366.981 110.104V111.212L377.236 105.281V104.173ZM357.62 119.59L362.14 116.982V115.875L357.62 118.483V119.59ZM363.623 116.125L370.894 111.926V110.837L363.623 115.035V116.125ZM372.359 111.069L377.254 108.246V107.139L372.359 109.961V111.069Z" fill="#C7DEFF"/>
<path d="M365.498 77.2867L357.62 81.8422V82.9499L365.498 78.3943V77.2867ZM377.236 70.516L366.981 76.4471V77.5547L377.236 71.6236V70.516ZM362.14 82.2174L357.62 84.8257V85.9333L362.14 83.325V82.2174ZM370.894 77.1617L363.623 81.3599V82.4675L370.894 78.2693V77.1617ZM372.359 77.4118L377.254 74.5892V73.4994L372.359 76.322V77.4118ZM365.498 83.2536L357.62 87.8091V88.9167L365.498 84.3612V83.2536ZM377.236 76.4828L366.981 82.4139V83.5037L377.236 77.5726V76.4828ZM362.14 88.1842L357.62 90.7925V91.9001L362.14 89.2918V88.1842ZM363.623 88.4343L370.894 84.2361V83.1464L363.623 87.3446V88.4343ZM372.359 83.3965L377.254 80.5738V79.4662L372.359 82.2889V83.3965ZM365.498 89.2383L357.62 93.7938V94.9014L365.498 90.3459V89.2383ZM377.236 82.4497L366.981 88.3808V89.4884L377.236 83.5573V82.4497ZM357.62 97.8669L362.14 95.2587V94.1511L357.62 96.7593V97.8669ZM363.623 94.419L370.894 90.2208V89.1132L363.623 93.3114V94.419ZM372.359 89.3633L377.254 86.5407V85.4331L372.359 88.2557V89.3633Z" fill="#C7DEFF"/>
<path d="M238.033 77.7947L237.979 55.964L232.513 52.7841L232.566 74.6148C232.566 75.9189 233.031 76.83 233.763 77.2588L239.23 80.4387C238.497 79.9921 238.051 79.081 238.033 77.7947Z" fill="#006FC2"/>
<path d="M260.523 33.2757C259.773 32.847 258.737 32.9006 257.594 33.5616L236.638 45.656C234.369 46.978 232.529 50.1579 232.529 52.7662L237.996 55.9461C237.996 53.32 239.836 50.14 242.105 48.8359L263.06 36.7415C264.204 36.0805 265.24 36.0269 265.99 36.4556L260.523 33.2757Z" fill="url(#paint0_linear)"/>
<path opacity="0.3" d="M260.525 33.2757C259.774 32.847 258.738 32.9006 257.595 33.5616L263.061 36.7415C264.205 36.0805 265.241 36.0269 265.991 36.4556L260.525 33.2757Z" fill="#13599F"/>
<path opacity="0.3" d="M236.622 45.6738C234.353 46.9958 232.513 50.1757 232.513 52.784L237.979 55.9639C237.979 53.3378 239.819 50.1578 242.088 48.8537L236.622 45.6738Z" fill="#13599F"/>
<path d="M267.188 39.0996C267.188 36.4735 265.33 35.4374 263.044 36.7415L242.088 48.8359C239.82 50.1579 237.979 53.3378 237.979 55.9461L238.033 77.7768C238.033 80.3851 239.891 81.4391 242.178 80.135L263.133 68.0406C265.402 66.7186 267.242 63.5386 267.242 60.9304L267.188 39.0996Z" fill="#5793CE"/>
<path d="M256.166 50.6225C254.916 48.9789 251.95 49.0325 248.502 51.0333C243.929 53.6773 240.249 58.7152 240.249 62.2881C240.249 63.5744 240.731 64.5034 241.571 65.0215C242.267 65.4681 242.732 66.3256 242.696 67.5225C242.678 68.3265 242.482 69.2911 242.232 70.5595L245.644 65.2716C246.358 65.0572 247.126 64.7535 247.913 64.3426C247.787 63.9317 247.716 63.4494 247.716 62.9313C247.698 59.001 251.45 53.6237 256.166 50.6225Z" fill="white"/>
<path d="M263.883 56.9643C264.651 55.5352 265.098 54.1238 265.098 52.8912C265.08 49.3182 261.382 48.55 256.809 51.194C252.235 53.838 248.537 58.8759 248.555 62.4488C248.573 66.0218 252.271 66.79 256.844 64.146C258.041 63.4493 259.167 62.6096 260.185 61.6628L263.901 62.1987C263.865 62.163 263.312 61.6092 263.115 60.4837C262.936 59.4654 263.222 58.1613 263.883 56.9643Z" fill="white"/>
<path d="M84.1814 163.264L81.2158 161.549L87.3256 168.999L90.2733 170.714L84.1814 163.264Z" fill="#006FC2"/>
<path d="M91.6849 122.711C90.6487 122.104 89.2196 122.193 87.6475 123.104L90.5951 124.819C92.1672 123.908 93.6143 123.819 94.6326 124.426L91.6849 122.711Z" fill="#13599F"/>
<path d="M39.0191 182.79L38.9477 161.192L36 159.477L36.0536 181.075C36.0536 182.862 36.6967 184.13 37.715 184.72L40.6627 186.435C39.6444 185.845 39.0191 184.577 39.0191 182.79Z" fill="#006FC2"/>
<path d="M87.6298 123.104L41.6816 149.633L44.6293 151.348L90.5775 124.819L87.6298 123.104Z" fill="#5793CE"/>
<path d="M41.6811 149.633C38.5369 151.456 35.9822 155.85 36.0001 159.477L38.9478 161.192C38.9299 157.583 41.4846 153.171 44.6288 151.348L41.6811 149.633Z" fill="#13599F"/>
<path d="M90.5765 124.819C93.7207 122.997 96.2754 124.462 96.2932 128.088L96.3468 149.687C96.3647 153.296 93.81 157.69 90.6658 159.513L90.2192 159.763L90.255 170.714L84.1631 163.264L44.7355 186.042C41.5735 187.864 39.0188 186.399 39.0188 182.79L38.9474 161.192C38.9295 157.583 41.4842 153.171 44.6284 151.348L90.5765 124.819Z" fill="#13599F"/>
<path d="M42.1632 185.917C40.7519 185.917 39.9123 184.738 39.8944 182.772L39.8408 161.192C39.8408 157.923 42.2347 153.778 45.0752 152.134L91.0234 125.587C91.7737 125.159 92.5061 124.926 93.1314 124.926C94.5427 124.926 95.4002 126.105 95.4002 128.088L95.4538 149.687C95.4538 153.01 93.1135 157.065 90.2195 158.744L89.3262 159.262L89.3441 168.213L84.3598 162.121L44.2891 185.256C43.5388 185.702 42.8064 185.917 42.1632 185.917Z" fill="white"/>
<path d="M398.602 141.827L395.636 140.112L401.746 147.561L404.694 149.276L398.602 141.827Z" fill="#006FC2"/>
<path d="M406.105 101.273C405.069 100.666 403.64 100.755 402.068 101.666L405.016 103.382C406.588 102.47 408.035 102.381 409.053 102.988L406.105 101.273Z" fill="#13599F"/>
<path d="M353.44 161.353L353.368 139.754L350.42 138.039L350.474 159.638C350.474 161.424 351.117 162.692 352.135 163.282L355.083 164.997C354.065 164.408 353.44 163.139 353.44 161.353Z" fill="#006FC2"/>
<path d="M402.05 101.666L356.102 128.196L359.05 129.911L404.998 103.381L402.05 101.666Z" fill="#5793CE"/>
<path d="M356.101 128.196C352.957 130.018 350.403 134.413 350.421 138.039L353.368 139.754C353.35 136.145 355.905 131.733 359.049 129.911L356.101 128.196Z" fill="#13599F"/>
<path d="M404.997 103.381C408.141 101.559 410.696 103.024 410.714 106.651L410.767 128.249C410.785 131.858 408.23 136.253 405.086 138.075L404.64 138.325L404.675 149.276L398.583 141.826L359.156 164.604C355.994 166.426 353.439 164.961 353.439 161.353L353.368 139.754C353.35 136.145 355.905 131.733 359.049 129.911L404.997 103.381Z" fill="#13599F"/>
<path d="M356.584 164.479C355.172 164.479 354.333 163.3 354.315 161.335L354.261 139.754C354.261 136.485 356.655 132.34 359.496 130.697L405.444 104.15C406.194 103.721 406.927 103.489 407.552 103.489C408.963 103.489 409.821 104.668 409.821 106.651L409.874 128.249C409.874 131.572 407.534 135.627 404.64 137.307L403.747 137.825L403.764 146.775L398.78 140.683L358.71 163.818C357.959 164.265 357.227 164.479 356.584 164.479Z" fill="white"/>
<path d="M51.5052 270.393L109.215 234.964C114.127 231.944 118.213 234.198 118.366 239.881L120.183 307.6C120.336 313.283 116.501 320.388 111.589 323.416L53.8792 358.844C48.9751 361.864 44.8835 359.699 44.7284 353.919L42.9111 286.208C42.7561 280.437 46.601 273.412 51.5052 270.393Z" fill="#D4ECFF"/>
<path d="M47.2414 359.459L61.1885 353.744L69.3577 358.163L55.6813 364.048L47.2414 359.459Z" fill="#173D7A"/>
<path d="M61.5278 363.011L119.238 327.582C124.142 324.563 127.979 317.547 127.824 311.767L126.006 244.056C125.854 238.373 121.768 236.119 116.864 239.138L59.154 274.567C54.2418 277.587 50.4049 284.603 50.56 290.383L52.3773 358.094C52.6187 363.783 56.7045 366.036 61.5278 363.011Z" fill="#5793CE"/>
<path d="M113.297 252.98C113.351 254.987 114.775 255.739 116.496 254.645C118.219 253.63 119.467 251.144 119.416 249.226C119.362 247.211 117.938 246.459 116.306 247.559C114.493 248.568 113.243 250.965 113.297 252.98Z" fill="#173D7A"/>
<path d="M57.399 287.223C57.4528 289.23 58.8766 289.982 60.5976 288.887C62.3209 287.873 63.658 285.393 63.6063 283.467C63.5522 281.451 62.1283 280.699 60.4075 281.802C58.684 282.808 57.3473 285.296 57.399 287.223Z" fill="#173D7A"/>
<path d="M115.037 317.805C115.09 319.812 116.514 320.565 118.235 319.47C119.959 318.456 121.207 315.978 121.153 313.963C121.099 311.948 119.675 311.203 118.043 312.296C116.233 313.393 114.985 315.879 115.037 317.805Z" fill="#173D7A"/>
<path d="M59.1407 352.137C59.1945 354.144 60.6184 354.896 62.2508 353.804C63.974 352.79 65.311 350.309 65.2593 348.383C65.2052 346.368 63.7815 345.615 62.0606 346.718C60.4234 347.634 59.0866 350.122 59.1407 352.137Z" fill="#173D7A"/>
<path d="M76.1066 309.13C76.3344 317.618 82.3772 320.957 89.6056 316.471C96.842 311.985 102.514 301.508 102.286 293.02C102.058 284.532 96.0155 281.193 88.7791 285.679C81.629 290.074 75.8788 300.642 76.1066 309.13Z" fill="#3C3C3B"/>
<path d="M71.9316 313.88C72.2979 327.527 81.9818 332.785 93.608 325.649C105.242 318.504 114.334 301.715 113.968 288.068C113.602 274.421 103.918 269.164 92.2835 276.3C80.7462 283.442 71.5653 300.233 71.9316 313.88Z" fill="#396CAA"/>
<path d="M170.673 332.421C175.042 332.304 178.908 329.393 180.097 324.989C181.534 319.61 178.32 314.09 173.03 312.659L96.9289 292.204C91.5421 290.767 87.4327 293.943 85.996 299.322C84.5673 304.7 86.2895 310.26 91.6679 311.689L167.769 332.144C168.744 332.384 169.706 332.447 170.673 332.421Z" fill="white"/>
<path d="M155.521 322.762C155.845 334.829 165.91 344.368 177.985 344.043C190.053 343.72 199.591 333.655 199.268 321.588C198.943 309.512 188.878 299.973 176.811 300.297C164.647 300.624 155.197 310.687 155.521 322.762Z" fill="#396CAA"/>
<path d="M182.268 314.34C186.823 314.218 190.851 311.045 191.863 306.371L206.796 236.371C207.956 230.911 204.489 225.575 199.029 224.415C193.569 223.246 188.233 226.713 187.065 232.174L172.141 302.173C170.972 307.634 174.439 312.969 179.899 314.138C180.694 314.294 181.478 314.361 182.268 314.34Z" fill="white"/>
<path d="M172.073 224.872C172.535 242.106 186.822 255.646 204.056 255.183C221.29 254.721 234.83 240.434 234.367 223.2C233.905 205.966 219.618 192.426 202.384 192.889C185.15 193.351 171.61 207.638 172.073 224.872Z" fill="#396CAA"/>
<path d="M357.431 193.107L175.307 94.4274C167.4 90.1707 156.655 91.0723 144.941 98.2192L350.607 209.666C360.02 214.753 368.778 201.733 360.462 195.131C360.37 195.045 360.37 195.045 360.279 194.959C359.926 194.702 359.562 194.365 359.119 194.111L358.86 194.384L357.431 193.107Z" fill="#396CAA"/>
<path d="M185.763 125.05C185.105 100.553 167.695 91.1307 146.767 103.946C125.831 116.761 109.484 146.974 110.141 171.462C110.799 195.959 128.21 205.39 149.145 192.567C169.985 179.754 186.42 149.547 185.763 125.05Z" fill="#DADADA"/>
<path d="M173.853 100.484L122.095 195.963L284.656 284.1L336.423 188.621L173.853 100.484Z" fill="#DADADA"/>
<path d="M309.346 192.123C288.507 204.944 272.071 235.151 272.729 259.64C273.386 284.137 290.797 293.568 311.725 280.745C332.572 267.932 349.008 237.725 348.35 213.228C347.693 188.731 330.193 179.311 309.346 192.123ZM331.311 198.1C335.126 200.184 337.38 205.73 337.589 213.517C337.852 223.31 334.584 235.313 328.658 246.233C322.74 257.161 314.494 266.4 306.137 271.529C299.591 275.561 293.579 276.682 289.854 274.677C288.16 273.762 286.81 272.137 285.693 269.892C284.392 267.12 283.683 263.549 283.568 259.269C283.305 249.467 286.573 237.472 292.499 226.544C298.425 215.616 306.663 206.377 315.018 201.167C318.637 198.965 322.1 197.557 325.065 197.13C327.511 196.887 329.616 197.186 331.311 198.1Z" fill="#EDEDED"/>
<path d="M337.584 213.516C337.847 223.31 334.58 235.304 328.653 246.232C322.735 257.16 314.489 266.4 306.133 271.529C299.586 275.553 293.574 276.682 289.842 274.677C288.156 273.762 286.797 272.137 285.688 269.884C284.388 267.119 283.679 263.549 283.564 259.26C283.301 249.466 286.568 237.472 292.495 226.544C298.413 215.616 306.659 206.377 315.013 201.159C318.632 198.965 322.096 197.557 325.061 197.13C327.504 196.799 329.61 197.097 331.296 198.012C335.121 200.184 337.378 205.818 337.584 213.516Z" fill="#396CAA"/>
<path d="M325.067 197.218C322.102 197.645 318.636 198.964 315.019 201.247C314.758 201.432 314.416 201.618 314.155 201.795C312.094 203.165 310.03 204.713 307.981 206.518C302.168 211.748 296.749 218.726 292.498 226.544C288.239 234.362 285.399 242.755 284.211 250.49C283.758 253.132 283.562 255.759 283.628 258.21C283.637 258.564 283.647 258.911 283.656 259.258C283.771 263.546 284.569 267.114 285.781 269.889C289.477 270.572 294.35 269.393 299.52 266.366C307.798 261.586 315.79 252.797 321.459 242.223C327.131 231.745 330.144 220.193 329.719 210.662C329.294 204.72 327.681 199.947 325.067 197.218Z" fill="#D4ECFF"/>
<path d="M314.155 201.795C312.094 203.165 310.03 204.713 307.982 206.518C302.169 211.748 296.75 218.726 292.499 226.544C288.24 234.362 285.4 242.755 284.212 250.49C283.758 253.132 283.563 255.759 283.628 258.21C287.7 259.939 293.022 259.272 298.793 255.786C311.198 248.193 320.874 230.332 320.484 215.814C320.134 209.08 317.81 204.238 314.155 201.795Z" fill="#173D7A"/>
<path d="M307.99 206.518C302.177 211.748 296.758 218.726 292.507 226.543C288.248 234.361 285.408 242.754 284.22 250.49C287.509 252.507 292.058 252.207 297.049 249.097C306.698 243.143 314.199 229.284 313.896 217.999C313.661 212.23 311.447 208.175 307.99 206.518Z" fill="#173D7A"/>
<path opacity="0.5" d="M292.04 238.988C294.882 237.25 297.774 234.107 299.946 230.281L305.403 234.337C302.715 238.79 299.227 242.562 295.607 244.756C292.855 246.5 290.163 247.177 287.872 246.892L288.919 240.209C289.363 240.197 290.406 240 292.04 238.988Z" fill="#D4ECFF"/>
<path d="M124.932 161.612C123.334 160.695 122.481 158.354 123.037 156.242C123.595 154.21 125.408 153.201 127.005 154.119L266.752 229.865C268.358 230.781 269.203 233.123 268.647 235.235C268.091 237.355 266.284 238.275 264.681 237.447L124.932 161.612Z" fill="#C6C6C6"/>
<path d="M121.886 178.335C120.288 177.41 119.004 175.258 119.134 173.504C119.174 171.664 120.55 170.926 122.155 171.842L261.902 247.589C263.5 248.506 264.784 250.665 264.742 252.417C264.612 254.171 263.236 254.91 261.633 254.073L121.886 178.335Z" fill="#C6C6C6"/>
<path d="M177.085 95.3397C176.463 95.0096 175.932 94.7575 175.399 94.4249C167.492 90.1682 156.747 91.0698 145.033 98.2167C133.231 105.447 122.785 117.456 115.36 131.143C109.861 141.446 105.957 152.578 104.496 163.386C103.691 169.45 106.741 175.498 112.168 178.418L249.156 252.657C265.502 261.495 286.159 254.818 293.67 237.717C294.825 235.056 296.149 232.399 297.572 229.82C304.998 216.141 315.442 204.043 327.157 196.896C338.869 189.669 349.614 188.768 357.522 193.105L177.085 95.3397Z" fill="white"/>
<path d="M359.217 194.108L357.439 193.107C358.061 193.437 358.595 193.778 359.217 194.108Z" fill="#C6C6C6"/>
<path d="M252.591 240.393C250.454 239.232 248.207 240.253 247.486 242.547C246.757 244.841 247.882 247.699 250.017 248.787C252.145 249.948 254.393 248.927 255.122 246.633C255.85 244.339 254.719 241.562 252.591 240.393Z" fill="#173D7A"/>
<path d="M208.436 216.459C206.308 215.29 204.06 216.31 203.331 218.604C202.602 220.899 203.736 223.764 205.862 224.844C207.991 226.013 210.246 224.985 210.967 222.691C211.696 220.396 210.573 217.627 208.436 216.459Z" fill="#173D7A"/>
<path d="M164.283 192.515C162.147 191.346 159.899 192.367 159.17 194.661C158.45 196.963 159.575 199.821 161.701 200.901C163.838 202.07 166.085 201.042 166.814 198.747C167.535 196.453 166.412 193.684 164.283 192.515Z" fill="#173D7A"/>
<path d="M120.218 168.57C118.092 167.49 115.834 168.422 115.025 170.719C114.298 173.102 115.421 175.879 117.558 177.047C119.687 178.216 121.942 177.188 122.663 174.894C123.389 172.511 122.266 169.742 120.218 168.57Z" fill="#173D7A"/>
<path d="M82.1445 363.498L85.3781 362.766L92.1845 333.628L88.951 334.361L82.1445 363.498Z" fill="#13599F"/>
<path d="M89.8804 330.395L93.1139 329.68L98.5984 306.17L95.3827 306.885L89.8804 330.395Z" fill="#13599F"/>
<path d="M113.605 344.097L116.82 343.364L93.1139 329.68L89.8804 330.395L113.605 344.097Z" fill="#F9F2F6"/>
<path d="M96.2939 302.937L99.5275 302.222L105.03 278.676L101.796 279.391L96.2939 302.937Z" fill="#13599F"/>
<path d="M120.018 316.621L123.234 315.906L99.5275 302.222L96.2939 302.937L120.018 316.621Z" fill="#F9F2F6"/>
<path d="M102.725 275.443L105.959 274.71L111.443 251.2L108.227 251.933L102.725 275.443Z" fill="#13599F"/>
<path d="M126.45 289.127L129.665 288.412L105.959 274.71L102.725 275.443L126.45 289.127Z" fill="#F9F2F6"/>
<path d="M109.138 247.985L112.372 247.252L117.856 223.742L114.641 224.457L109.138 247.985Z" fill="#13599F"/>
<path d="M132.863 261.669L136.078 260.954L112.372 247.252L109.138 247.985L132.863 261.669Z" fill="#F9F2F6"/>
<path d="M115.57 220.509L118.785 219.794L124.288 196.248L121.072 196.963L115.57 220.509Z" fill="#13599F"/>
<path d="M122.001 193.015L125.217 192.3L129.022 176.007L125.788 176.74L122.001 193.015Z" fill="#13599F"/>
<path d="M125.789 176.74L129.022 176.007L125.753 174.132L122.52 174.846L125.789 176.74Z" fill="#F9F2F6"/>
<path d="M139.276 234.211L142.51 233.478L118.785 219.794L115.57 220.509L139.276 234.211Z" fill="#F9F2F6"/>
<path d="M145.708 206.699L148.923 205.984L125.217 192.3L122.001 193.015L145.708 206.699Z" fill="#F9F2F6"/>
<path d="M152.764 192.3L155.98 191.585L152.728 189.71L149.513 190.424L152.764 192.3Z" fill="#F9F2F6"/>
<path d="M109.121 379.058L112.336 378.344L155.98 191.585L152.764 192.3L109.121 379.058Z" fill="#13599F"/>
<path d="M122.001 193.015L145.708 206.699L149.513 190.424L152.764 192.3L109.121 379.058L105.869 377.182L112.676 348.045L88.9691 334.361L82.1447 363.498L78.8755 361.604L122.519 174.846L125.788 176.74L122.001 193.015ZM96.2936 302.937L120 316.621L125.503 293.075L101.796 279.391L96.2936 302.937ZM115.57 220.509L139.276 234.193L144.779 210.647L121.072 196.963L115.57 220.509ZM89.8802 330.395L113.587 344.079L119.089 320.569L95.3825 306.885L89.8802 330.395ZM109.138 247.985L132.845 261.669L138.347 238.159L114.641 224.474L109.138 247.985ZM102.725 275.443L126.431 289.127L131.934 265.617L108.227 251.933L102.725 275.443Z" fill="#5793CE"/>
<g clip-path="url(#clip0)">
<path d="M105.904 128.882C105.242 130.531 106.066 132.423 107.715 133.074L131.171 142.398C132.82 143.06 134.713 142.236 135.363 140.587C136.025 138.938 135.201 137.045 133.552 136.395L110.096 127.07C108.447 126.42 106.554 127.233 105.904 128.882Z" fill="#E6A984"/>
<path d="M130.509 133.283L138.08 136.29C140.635 137.301 141.889 140.227 140.879 142.781C139.869 145.336 136.942 146.59 134.388 145.58L126.817 142.572C126.817 142.572 123.821 137.602 130.509 133.283Z" fill="#313974"/>
<path d="M145.233 174.586C145.047 174.877 144.792 175.097 144.502 175.271L127.502 184.991C125.655 186.059 123.043 185.014 121.696 182.68C120.36 180.346 120.778 177.571 122.625 176.502L142.191 165.308C142.655 165.041 143.248 165.099 143.642 165.471C145.071 166.818 147.997 170.278 145.233 174.586Z" fill="#5786D4"/>
<path d="M156.496 180.346C156.311 180.636 156.055 180.857 155.765 181.031L138.765 190.762C136.919 191.83 134.306 190.785 132.959 188.451C131.624 186.117 132.042 183.342 133.888 182.273L153.454 171.079C153.918 170.812 154.511 170.87 154.906 171.242C156.334 172.589 159.248 176.049 156.496 180.346Z" fill="#73A1F9"/>
<path d="M129.894 209.619C130.033 211.024 126.654 211.907 123.821 213.544C119.884 215.82 115.646 217.051 113.626 215.89C113.115 215.599 112.871 215.216 112.859 214.775V212.464C112.79 211.152 114.729 209.166 117.69 206.275C120.941 203.105 123.02 201.119 127.885 203.929C129.278 204.731 129.836 205.335 129.836 205.845L129.894 209.619Z" fill="#080C01"/>
<path d="M117.69 206.277C113.754 210.109 111.605 212.373 113.626 213.546C115.646 214.719 119.687 212.954 123.821 209.83C127.444 207.09 132.751 206.753 127.885 203.943C123.02 201.121 120.941 203.107 117.69 206.277Z" fill="#22223A"/>
<path d="M120.837 203.5C120.674 203.198 120.616 202.861 120.616 202.525V179.777C120.616 177.64 122.822 175.898 125.505 175.898C128.199 175.898 130.393 177.64 130.393 179.777V205.474C130.393 206.02 130.045 206.496 129.523 206.658C127.653 207.216 123.194 208.029 120.837 203.5Z" fill="#5786D4"/>
<path d="M154.801 182.331C154.685 182.413 154.546 182.459 154.383 182.471C152.224 182.633 144.444 180.95 136.664 172.171C136.025 171.451 135.607 170.464 135.607 169.651V144.767C135.607 142.886 136.28 141.574 137.349 140.97L143.201 137.556C144.269 136.917 145.744 136.998 147.37 137.939L155.347 142.549C158.564 144.407 161.2 148.97 161.2 152.698V177.721C161.2 178.302 160.991 178.732 160.631 178.917L154.801 182.331Z" fill="#42498F"/>
<path d="M158.47 184.654C160.247 184.654 161.698 183.202 161.698 181.426V156.181C161.698 154.405 160.247 152.953 158.47 152.953C156.694 152.953 155.242 154.405 155.242 156.181V181.426C155.242 183.202 156.694 184.654 158.47 184.654Z" fill="#E6A984"/>
<path d="M153.478 160.164V152.024C153.478 149.272 155.73 147.031 158.471 147.031C161.223 147.031 163.464 149.284 163.464 152.024V160.164C163.464 160.164 159.957 164.786 153.478 160.164Z" fill="#313974"/>
<path d="M141.562 214.775C141.701 216.18 138.322 217.063 135.489 218.7C131.552 220.976 127.314 222.207 125.294 221.045C124.783 220.755 124.539 220.372 124.527 219.931V217.62C124.458 216.308 126.397 214.322 129.358 211.442C132.609 208.272 134.688 206.287 139.553 209.097C140.946 209.898 141.504 210.502 141.504 211.013L141.562 214.775Z" fill="#080C01"/>
<path d="M129.347 211.431C125.411 215.263 123.263 217.527 125.283 218.7C127.304 219.861 131.345 218.108 135.478 214.984C139.101 212.244 144.408 211.907 139.543 209.097C134.677 206.287 132.61 208.261 129.347 211.431Z" fill="#22223A"/>
<path d="M132.494 208.656C132.331 208.354 132.273 208.017 132.273 207.68V184.921C132.273 182.784 134.48 181.043 137.162 181.043C139.856 181.043 142.051 182.784 142.051 184.921V210.618C142.051 211.164 141.702 211.64 141.18 211.803C139.31 212.372 134.863 213.184 132.494 208.656Z" fill="#73A1F9"/>
<path d="M153.919 144.093C153.931 144.709 153.536 145.336 152.711 145.8C151.097 146.729 148.485 146.729 146.882 145.8C146.069 145.324 145.663 144.709 145.675 144.093V138.671C145.663 138.055 146.058 137.428 146.882 136.964C148.496 136.035 151.109 136.035 152.711 136.964C153.524 137.44 153.931 138.055 153.919 138.671V144.093V144.093Z" fill="#D5A69B"/>
<path d="M149.692 141.376C155.964 141.376 161.048 136.292 161.048 130.02C161.048 123.748 155.964 118.663 149.692 118.663C143.42 118.663 138.335 123.748 138.335 130.02C138.335 136.292 143.42 141.376 149.692 141.376Z" fill="#EDC3B6"/>
<path fill-rule="evenodd" clip-rule="evenodd" d="M159.168 116.585C168.875 119.917 164.045 134.096 156.985 139.205C153.536 137.324 157.728 133.945 153.025 136.29C152.084 131.727 154.198 133.12 152.92 127.372C147.985 129.95 138.371 126.826 136.884 122.066C138.603 121.299 140.403 116.422 144.432 114.622C149.599 112.335 156.218 113.357 159.168 116.585Z" fill="#CF8720"/>
<path d="M153.478 136.406C153.478 137.765 154.43 138.311 155.603 137.637C156.775 136.964 157.728 135.315 157.728 133.956C157.728 132.598 156.775 132.052 155.603 132.725C154.43 133.399 153.478 135.048 153.478 136.406Z" fill="#EDC3B6"/>
<path d="M137.93 133.678C137.93 135.954 139.521 138.706 141.495 139.844C143.457 140.981 145.059 140.064 145.059 137.788C145.059 135.512 143.469 132.76 141.495 131.622C139.521 130.484 137.93 131.402 137.93 133.678ZM138.743 133.027C138.743 132.412 139.973 132.621 141.495 133.492C143.016 134.363 144.247 135.582 144.247 136.197C144.247 136.813 143.016 136.604 141.495 135.733C139.973 134.862 138.743 133.643 138.743 133.027Z" fill="#CF8720"/>
<path d="M153.338 130.507C153.338 130.507 150.784 138.009 144.537 136V139.135C144.537 139.135 150.795 141.643 153.025 136.29C153.025 136.302 154.291 130.368 153.338 130.507Z" fill="#CF8720"/>
</g>
<path d="M221.383 160.258L213.272 164.939V166.064L221.383 161.384V160.258ZM231.012 154.702L222.902 159.383V160.508L231.012 155.828V154.702ZM235.907 151.862L232.531 153.809V154.935L235.907 152.987V151.862ZM237.426 150.987V152.112L241.767 149.611V148.485L237.426 150.987ZM217.917 165.332L213.272 168.012V169.137L217.917 166.457V165.332ZM226.921 160.133L219.454 164.457V165.582L226.921 161.259V160.133ZM228.44 160.383L233.46 157.489V156.364L228.44 159.258V160.383ZM234.978 156.614L241.767 152.684V151.558L234.978 155.488V156.614ZM221.383 166.404L213.272 171.084V172.21L221.383 167.529V166.404ZM231.012 160.83L222.902 165.511V166.636L231.012 161.955V160.83ZM235.907 158.007L232.531 159.955V161.098L235.907 159.151V158.007ZM237.426 158.258L241.767 155.756V154.631L237.426 157.132V158.258ZM217.917 171.46L213.272 174.139V175.265L217.917 172.585V171.46ZM219.454 171.71L226.921 167.386V166.261L219.454 170.584V171.71ZM228.44 166.529L233.46 163.635V162.509L228.44 165.403V166.529ZM234.978 162.742L241.767 158.811V157.686L234.978 161.616V162.742ZM221.383 172.531L213.272 177.212V178.337L221.383 173.657V172.531ZM231.012 166.975L222.902 171.656V172.782L231.012 168.101V166.975ZM232.531 167.226L235.907 165.278V164.153L232.531 166.1V167.226ZM237.426 164.403L241.767 161.902V160.776L237.426 163.277V164.403ZM213.29 181.41L217.935 178.731V177.605L213.29 180.285V181.41ZM219.454 177.855L226.921 173.55V172.424L219.454 176.748V177.855ZM228.44 172.674L233.46 169.78V168.655L228.44 171.549V172.674ZM234.978 168.887L241.767 164.957V163.831L234.978 167.762V168.887Z" fill="#C7DEFF"/>
<path d="M218.381 151.022L218.327 129.192L212.861 126.012L212.914 147.842C212.914 149.147 213.379 150.058 214.111 150.486L219.578 153.666C218.828 153.238 218.381 152.326 218.381 151.022Z" fill="#006FC2"/>
<path d="M240.855 106.521C240.105 106.093 239.069 106.146 237.926 106.807L216.97 118.902C214.701 120.224 212.861 123.404 212.861 126.012L218.328 129.192C218.328 126.566 220.168 123.386 222.437 122.082L243.392 109.987C244.536 109.326 245.572 109.272 246.322 109.701L240.855 106.521Z" fill="url(#paint1_linear)"/>
<path opacity="0.3" d="M240.855 106.521C240.104 106.092 239.068 106.146 237.925 106.807L243.391 109.987C244.535 109.326 245.571 109.272 246.321 109.701L240.855 106.521Z" fill="#5793CE"/>
<path opacity="0.3" d="M216.97 118.902C214.701 120.224 212.861 123.403 212.861 126.012L218.327 129.192C218.327 126.566 220.168 123.386 222.436 122.081L216.97 118.902Z" fill="#5793CE"/>
<path d="M247.518 112.327C247.518 109.701 245.66 108.665 243.373 109.969L222.418 122.064C220.149 123.386 218.309 126.566 218.309 129.174L218.363 151.005C218.363 153.613 220.221 154.667 222.507 153.363L243.463 141.268C245.731 139.946 247.572 136.766 247.572 134.158L247.518 112.327Z" fill="#13599F"/>
<path d="M233.834 122.51L233.816 121.081L232.583 121.796V123.225L233.834 122.51Z" fill="white"/>
<path d="M240.604 127.763L241.837 127.048V125.619L240.604 126.333V127.763Z" fill="white"/>
<path d="M232.655 140.143V141.572L233.887 140.839V139.41L232.655 140.143Z" fill="white"/>
<path d="M224.633 135.587V137.016L225.866 136.302V134.873L224.633 135.587Z" fill="white"/>
<path d="M236.334 124.672C236.245 124.654 236.12 124.672 236.013 124.743C235.834 124.85 235.673 125.029 235.566 125.279L233.351 130.085L233.226 130.138C232.743 130.424 232.332 131.05 232.225 131.639L226.544 134.926C226.419 134.998 226.312 135.176 226.312 135.337C226.312 135.48 226.419 135.551 226.544 135.48L232.225 132.211C232.332 132.693 232.743 132.872 233.244 132.586C233.833 132.246 234.298 131.425 234.298 130.764C234.298 130.621 234.262 130.496 234.226 130.406L236.477 125.547C236.638 125.101 236.584 124.743 236.334 124.672Z" fill="white"/>
<path d="M241.873 120.599C240.533 118.705 238.371 118.044 235.799 118.741C234.941 118.973 234.066 119.348 233.19 119.848C231.458 120.849 229.76 122.349 228.206 124.261C225.902 127.119 224.258 130.549 223.579 133.908C222.9 137.266 223.258 140.161 224.597 142.036C226.455 144.662 229.832 144.77 233.28 142.769C234.977 141.786 236.692 140.303 238.264 138.356C240.569 135.498 242.212 132.068 242.891 128.709C243.57 125.369 243.213 122.474 241.873 120.599ZM242.426 128.852C241.783 132.05 240.211 135.301 238.032 138.035C236.567 139.857 234.941 141.286 233.298 142.233C232.476 142.715 231.636 143.055 230.832 143.287C228.385 143.948 226.33 143.323 225.044 141.536C223.776 139.732 223.418 136.998 224.079 133.801C224.722 130.603 226.295 127.334 228.474 124.618C229.939 122.796 231.565 121.367 233.208 120.42C234.03 119.938 234.87 119.598 235.674 119.366C238.121 118.705 240.176 119.33 241.462 121.117C242.712 122.903 243.07 125.654 242.426 128.852Z" fill="white"/>
<path d="M271.058 352.653C269.46 352.943 267.917 351.868 267.637 350.269L265.487 338.248C265.197 336.649 266.272 335.107 267.87 334.826C269.469 334.536 271.011 335.611 271.292 337.21L273.442 349.232C273.722 350.83 272.657 352.363 271.058 352.653Z" fill="#E6A984"/>
<path d="M273.516 340.501L272.207 333.181C271.768 330.713 269.384 329.049 266.916 329.488C264.448 329.928 262.784 332.311 263.223 334.779L264.532 342.099C264.532 342.108 268.43 345.698 273.516 340.501Z" fill="#173D7A"/>
<path d="M284.247 353.7C283.761 355.252 282.097 356.112 280.545 355.626L270.365 352.663C268.748 352.56 267.504 351.148 267.607 349.531C267.71 347.914 269.121 346.67 270.739 346.773L282.312 349.998C283.864 350.494 284.733 352.158 284.247 353.7Z" fill="#E6A984"/>
<path d="M252.975 400.871C252.844 402.161 255.929 402.956 258.519 404.451C262.118 406.527 265.988 407.658 267.83 406.592C268.297 406.321 268.521 405.975 268.531 405.582V403.47C268.596 402.273 266.82 400.45 264.118 397.823C261.146 394.925 259.248 393.121 254.807 395.683C253.536 396.412 253.031 396.963 253.022 397.431L252.975 400.871Z" fill="#080C01"/>
<path d="M264.118 397.815C267.708 401.311 269.671 403.386 267.82 404.443C265.979 405.508 262.286 403.901 258.51 401.049C255.2 398.544 250.358 398.236 254.808 395.674C259.248 393.113 261.146 394.917 264.118 397.815Z" fill="#22223A"/>
<path d="M261.25 395.281C261.39 395.01 261.456 394.702 261.456 394.384V363.563C261.456 361.609 259.446 360.02 256.987 360.02C254.528 360.02 252.519 361.618 252.519 363.563V397.086C252.519 397.581 252.836 398.02 253.313 398.161C255.024 398.675 259.09 399.413 261.25 395.281Z" fill="#084888"/>
<path d="M262.644 393.738C262.513 395.028 265.598 395.823 268.188 397.318C271.787 399.394 275.657 400.525 277.499 399.459C277.966 399.188 278.19 398.842 278.2 398.45V396.337C278.265 395.14 276.489 393.317 273.787 390.69C270.815 387.792 268.917 385.988 264.476 388.55C263.205 389.279 262.7 389.83 262.691 390.298L262.644 393.738Z" fill="#080C01"/>
<path d="M273.785 390.691C277.374 394.187 279.337 396.263 277.486 397.319C275.645 398.385 271.952 396.777 268.176 393.926C264.866 391.42 260.024 391.112 264.474 388.55C268.923 385.98 270.812 387.793 273.785 390.691Z" fill="#22223A"/>
<path d="M270.916 388.148C271.057 387.877 271.122 387.569 271.122 387.251V356.43C271.122 354.476 269.112 352.887 266.654 352.887C264.195 352.887 262.185 354.485 262.185 356.43V389.953C262.185 390.448 262.503 390.888 262.98 391.028C264.7 391.542 268.757 392.29 270.916 388.148Z" fill="#13599F"/>
<path d="M253.997 369.097C254.109 369.162 254.23 369.209 254.371 369.218C256.343 369.368 263.448 367.825 270.552 359.823C271.141 359.159 271.515 358.271 271.515 357.523V334.807C271.515 333.096 270.908 331.891 269.917 331.339L264.579 328.226C263.607 327.646 262.26 327.712 260.774 328.572L253.492 332.779C250.547 334.48 248.135 338.64 248.135 342.043V364.89C248.135 365.423 248.322 365.815 248.649 365.984L253.997 369.097Z" fill="#5793CE"/>
<path d="M256.063 334.19C256.053 334.751 256.418 335.321 257.166 335.751C258.633 336.602 261.017 336.602 262.494 335.751C263.242 335.321 263.607 334.751 263.597 334.19V329.245C263.607 328.684 263.242 328.114 262.494 327.684C261.027 326.833 258.643 326.833 257.166 327.684C256.418 328.114 256.053 328.684 256.063 329.245V334.19V334.19Z" fill="#CD8B68"/>
<path d="M269.933 323.654C271.211 318.073 267.723 312.513 262.143 311.234C256.562 309.956 251.001 313.443 249.723 319.024C248.444 324.605 251.932 330.165 257.513 331.444C263.093 332.723 268.654 329.235 269.933 323.654Z" fill="#E6A984"/>
<path d="M256.801 359.421C255.25 359.889 253.595 358.991 253.127 357.439L249.631 345.745C249.164 344.193 250.061 342.538 251.613 342.071C253.165 341.603 254.819 342.501 255.287 344.053L258.783 355.757C259.251 357.308 258.353 358.954 256.801 359.421Z" fill="#E6A984"/>
<path d="M257.867 347.072L255.735 339.949C255.016 337.546 252.464 336.163 250.061 336.883C247.659 337.602 246.275 340.155 246.995 342.557L249.126 349.68C249.126 349.68 253.408 352.803 257.867 347.072Z" fill="#173D7A"/>
<path d="M263.173 372.246C261.692 372.899 259.939 372.226 259.282 370.736L253.504 357.963C252.513 356.682 252.756 354.818 254.045 353.822C255.326 352.831 257.189 353.074 258.186 354.363L264.691 368.349C265.336 369.836 264.663 371.589 263.173 372.246Z" fill="#E6A984"/>
<path d="M254.23 329.469C254.903 328.796 255.941 327.553 256.371 326.011C256.39 325.926 256.399 325.842 256.399 325.758V320.794C256.399 319.803 256.633 318.822 257.156 317.98C257.596 317.27 258.25 316.634 259.175 316.69C259.175 316.69 267.495 320.317 270.608 313.54C270.842 313.026 270.571 312.399 270.01 312.269C269.412 312.128 268.627 311.614 267.757 310.203C267.551 309.866 267.159 309.679 266.776 309.773C265.972 309.988 264.485 310.034 263.055 308.408C262.877 308.211 262.625 308.109 262.363 308.118C260.783 308.146 255.305 308.417 252.323 310.567C252.304 310.586 252.286 310.595 252.267 310.614C251.631 311.137 241.33 319.915 252.996 329.516C253.361 329.825 253.894 329.806 254.23 329.469Z" fill="#173D7A"/>
<path d="M256.361 327.17C256.361 328.404 255.492 328.908 254.426 328.291C253.351 327.665 252.482 326.169 252.482 324.926C252.482 323.683 253.351 323.187 254.417 323.804C255.492 324.431 256.361 325.936 256.361 327.17Z" fill="#E6A984"/>
<path d="M289.659 355.449C289.516 355.538 289.391 355.591 289.266 355.627L279.941 357.932C279.851 357.95 279.78 357.967 279.709 357.967C279.566 357.967 279.458 357.914 279.387 357.825L279.065 357.467L290.535 349.303L290.856 349.66C290.945 349.768 290.981 349.91 290.963 350.089L290.159 354.698C290.124 354.984 289.909 355.27 289.659 355.449Z" fill="#13599F"/>
<path d="M288.945 355.288L279.62 357.592C279.53 357.61 279.459 357.628 279.388 357.628C279.084 357.61 278.905 357.396 278.977 357.074L279.781 352.465C279.852 352.054 280.245 351.643 280.692 351.536L290.017 349.232C290.089 349.214 290.178 349.196 290.231 349.214C290.535 349.232 290.714 349.446 290.66 349.785L289.856 354.394C289.767 354.77 289.374 355.181 288.945 355.288Z" fill="white"/>
<path d="M421.069 184.2L421.076 182.114L423.545 169.678L421.109 168.171L416.224 170.869L416.19 186.898C416.19 187.975 416.594 188.708 417.213 188.944L419.387 190.31L419.663 189.28L420.033 187.403C420.652 186.467 421.069 185.283 421.069 184.2Z" fill="#173D7A"/>
<path d="M421.056 190.256C419.71 191.003 418.62 190.168 418.62 188.399L418.653 172.37L423.539 169.671L423.505 185.7C423.505 187.477 422.408 189.516 421.056 190.256Z" fill="#5793CE"/>
<path d="M434.237 161.044C434.237 165.116 431.384 166.764 427.858 164.725C424.332 162.693 421.479 157.747 421.479 153.676C421.479 149.605 424.332 147.956 427.858 149.995C431.384 152.034 434.237 156.98 434.237 161.044Z" fill="#5793CE"/>
<path d="M432.434 165.143L413.869 175.781L403.889 160.796L423.229 149.625L432.434 165.143Z" fill="#5793CE"/>
<path d="M425.133 166.482C425.133 162.296 422.192 157.209 418.572 155.116C416.923 154.167 415.423 153.999 414.272 154.49L414.245 154.504C414.232 154.504 414.225 154.511 414.218 154.517C414.164 154.538 414.117 154.564 414.07 154.591C407.22 157.956 399.636 159.571 392.005 159.268L389.845 159.181L407.442 189.341L408.398 187.497C411.876 180.781 416.957 175.028 423.181 170.741C424.386 170.068 425.133 168.588 425.133 166.482Z" fill="#D4ECFF"/>
<path d="M409.494 182.524C409.494 174.496 403.862 164.739 396.911 160.722C393.445 158.723 390.303 158.528 388.028 159.833L388.015 159.84C388.008 159.84 388.002 159.847 387.995 159.847L385.929 161.058L386.649 160.91C385.182 162.437 384.314 164.847 384.314 167.989C384.314 176.017 389.946 185.774 396.897 189.792C399.623 191.366 402.153 191.824 404.212 191.312L403.896 191.79L405.8 190.68C405.807 190.673 405.82 190.666 405.827 190.66L405.894 190.619C408.115 189.287 409.494 186.488 409.494 182.524Z" fill="#D4ECFF"/>
<path d="M408.021 183.385C408.021 175.357 402.389 165.6 395.437 161.583C392.019 159.611 388.917 159.396 386.649 160.641L386.333 160.829C386.225 160.896 386.117 160.97 386.017 161.045L386.656 160.91C385.189 162.437 384.321 164.846 384.321 167.989C384.321 176.017 389.953 185.774 396.904 189.791C399.63 191.366 402.16 191.824 404.219 191.312L403.923 191.75C406.44 190.545 408.021 187.631 408.021 183.385Z" fill="white"/>
<path d="M403.914 191.781C408.828 188.944 408.828 179.743 403.913 171.23C398.998 162.717 391.03 158.116 386.115 160.954C381.201 163.791 381.201 172.993 386.116 181.505C391.031 190.018 398.999 194.619 403.914 191.781Z" fill="#5793CE"/>
<path d="M402.824 189.893C407.136 187.403 407.136 179.329 402.823 171.859C398.51 164.389 391.518 160.352 387.205 162.842C382.893 165.332 382.893 173.406 387.206 180.876C391.519 188.346 398.511 192.383 402.824 189.893Z" fill="#173D7A"/>
<path d="M395.532 188.89C389.435 185.37 384.489 176.811 384.489 169.765C384.489 166.064 385.855 163.528 388.029 162.451C385.553 163.366 383.971 166.004 383.971 169.988C383.971 177.026 388.917 185.592 395.014 189.112C397.907 190.781 400.545 191.016 402.517 190.047C400.612 190.747 398.183 190.424 395.532 188.89Z" fill="white"/>
<path d="M393.365 173.722L409.387 161.334L415.201 171.428L396.4 179.146L393.365 173.722Z" fill="#D4ECFF"/>
<path d="M396.572 179.066C397.435 178.568 397.437 176.956 396.576 175.466C395.716 173.976 394.319 173.171 393.457 173.669C392.594 174.167 392.592 175.779 393.453 177.269C394.313 178.759 395.71 179.564 396.572 179.066Z" fill="#5793CE"/>
<path d="M417.449 184.334L417.361 184.287C417.038 184.105 416.783 183.607 416.776 183.183L416.769 180.095C416.769 179.671 417.025 179.469 417.348 179.657L417.435 179.704C417.758 179.886 418.014 180.384 418.021 180.808L418.027 183.897C418.027 184.321 417.765 184.523 417.449 184.334Z" fill="#FF2C9C"/>
<path d="M233.299 252.647L225.42 257.203V258.31L233.299 253.755V252.647ZM245.036 245.858L234.782 251.79V252.897L245.036 246.966V245.858ZM229.94 257.578L225.42 260.186V261.294L229.94 258.685V257.578ZM238.694 252.522L231.423 256.72V257.828L238.694 253.63V252.522ZM240.159 252.772L245.054 249.949V248.842L240.159 251.665V252.772ZM233.299 258.614L225.42 263.169V264.277L233.299 259.722V258.614ZM245.036 251.843L234.782 257.774V258.882L245.036 252.951V251.843ZM229.94 263.545L225.42 266.153V267.26L229.94 264.652V263.545ZM231.423 263.795L238.694 259.596V258.489L231.423 262.687V263.795ZM240.159 258.739L245.054 255.916V254.827L240.159 257.649V258.739ZM233.299 264.581L225.42 269.136V270.244L233.299 265.688V264.581ZM245.036 257.81L234.782 263.741V264.849L245.036 258.918V257.81ZM225.42 273.227L229.94 270.619V269.511L225.42 272.12V273.227ZM231.423 269.762L238.694 265.563V264.474L231.423 268.672V269.762ZM240.159 264.706L245.054 261.883V260.776L240.159 263.598V264.706Z" fill="#C7DEFF"/>
<path d="M233.299 230.924L225.42 235.479V236.587L233.299 232.031V230.924ZM245.036 224.153L234.782 230.084V231.192L245.036 225.261V224.153ZM229.94 235.854L225.42 238.463V239.57L229.94 236.962V235.854ZM238.694 230.799L231.423 234.997V236.104L238.694 231.906V230.799ZM240.159 231.049L245.054 228.226V227.136L240.159 229.959V231.049ZM233.299 236.891L225.42 241.446V242.554L233.299 237.998V236.891ZM245.036 230.12L234.782 236.051V237.141L245.036 231.21V230.12ZM229.94 241.821L225.42 244.429V245.537L229.94 242.929V241.821ZM231.423 242.071L238.694 237.873V236.783L231.423 240.982V242.071ZM240.159 237.033L245.054 234.211V233.103L240.159 235.926V237.033ZM233.299 242.875L225.42 247.431V248.538L233.299 243.983V242.875ZM245.036 236.087L234.782 242.018V243.125L245.036 237.194V236.087ZM225.42 251.504L229.94 248.896V247.788L225.42 250.396V251.504ZM231.423 248.056L238.694 243.858V242.75L231.423 246.948V248.056ZM240.159 243L245.054 240.178V239.07L240.159 241.893V243Z" fill="#C7DEFF"/>
<path d="M266.402 295.463L263.436 293.748L269.546 301.198L272.493 302.913L266.402 295.463Z" fill="#006FC2"/>
<path d="M273.905 254.91C272.869 254.303 271.44 254.392 269.868 255.303L272.815 257.018C274.387 256.107 275.835 256.018 276.853 256.625L273.905 254.91Z" fill="#13599F"/>
<path d="M221.239 314.99L221.168 293.391L218.22 291.676L218.274 313.275C218.274 315.061 218.917 316.329 219.935 316.919L222.883 318.634C221.865 318.044 221.239 316.776 221.239 314.99Z" fill="#006FC2"/>
<path d="M269.85 255.303L223.902 281.833L226.85 283.548L272.798 257.018L269.85 255.303Z" fill="#5793CE"/>
<path d="M223.901 281.833C220.757 283.655 218.202 288.05 218.22 291.676L221.168 293.391C221.15 289.782 223.705 285.37 226.849 283.548L223.901 281.833Z" fill="#13599F"/>
<path d="M272.797 257.018C275.941 255.196 278.496 256.661 278.513 260.288L278.567 281.886C278.585 285.495 276.03 289.89 272.886 291.712L272.439 291.962L272.475 302.913L266.383 295.463L226.956 318.241C223.794 320.063 221.239 318.598 221.239 314.99L221.168 293.391C221.15 289.782 223.704 285.37 226.849 283.548L272.797 257.018Z" fill="#13599F"/>
<path d="M224.383 318.116C222.972 318.116 222.132 316.937 222.115 314.972L222.061 293.391C222.061 290.122 224.455 285.977 227.295 284.334L273.244 257.787C273.994 257.358 274.726 257.126 275.352 257.126C276.763 257.126 277.62 258.305 277.62 260.288L277.674 281.886C277.674 285.209 275.334 289.264 272.44 290.944L271.546 291.462L271.564 300.412L266.58 294.32L226.509 317.455C225.759 317.902 225.027 318.116 224.383 318.116Z" fill="white"/>
<defs>
<linearGradient id="paint0_linear" x1="256.549" y1="30.9913" x2="241.094" y2="57.7606" gradientUnits="userSpaceOnUse">
<stop stop-color="#5793CE"/>
<stop offset="1" stop-color="#13599F"/>
</linearGradient>
<linearGradient id="paint1_linear" x1="236.885" y1="104.225" x2="221.43" y2="130.994" gradientUnits="userSpaceOnUse">
<stop stop-color="#AFC6FF"/>
<stop offset="1" stop-color="#98B7FF"/>
</linearGradient>
<clipPath id="clip0">
<rect x="105.672" y="113.391" width="58.9537" height="108.095" fill="white"/>
</clipPath>
</defs>
</svg>
