<?xml version="1.0" encoding="utf-8"?><svg xmlns="http://www.w3.org/2000/svg" xmlns:xlink="http://www.w3.org/1999/xlink" width="1364" height="697" preserveAspectRatio="xMidYMid" viewBox="0 0 1364 697" style="z-index:1;margin-right:-2px;display:block;background-repeat-y:initial;background-repeat-x:initial;background-color:rgb(255, 255, 255);animation-play-state:running" ><g transform="translate(682,348.5) scale(1,1) translate(-682,-348.5)" style="transform:matrix(1, 0, 0, 1, 0, 0);animation-play-state:running" ><linearGradient id="lg-0.38853520840493516" x1="0" x2="1" y1="0" y2="0" style="animation-play-state:running" ><stop stop-color="#ff00ff" offset="0" style="animation-play-state:running" ></stop>

  
<stop stop-color="#00ffff" offset="1" style="animation-play-state:running" ></stop></linearGradient>
<path d="M 0 0 L 0 580.238 Q 136.4 649.171 272.8 632.003 T 545.6 531.082 T 818.4 396.61 T 1091.2 355.993 T 1364 367.284 L 1364 0 Z" fill="url(#lg-0.38853520840493516)" opacity="0.4" style="opacity:0.4;animation-play-state:running" ></path>
<path d="M 0 0 L 0 619.126 Q 136.4 623.516 272.8 583.328 T 545.6 482.558 T 818.4 389.703 T 1091.2 316.106 T 1364 264.072 L 1364 0 Z" fill="url(#lg-0.38853520840493516)" opacity="0.4" style="opacity:0.4;animation-play-state:running" ></path>
<path d="M 0 0 L 0 613.26 Q 136.4 606.897 272.8 579.522 T 545.6 458.649 T 818.4 437.53 T 1091.2 382.042 T 1364 262.534 L 1364 0 Z" fill="url(#lg-0.38853520840493516)" opacity="0.4" style="opacity:0.4;animation-play-state:running" ></path>
<path d="M 0 0 L 0 599.814 Q 136.4 562.396 272.8 526.695 T 545.6 541.749 T 818.4 473.405 T 1091.2 387.907 T 1364 278.926 L 1364 0 Z" fill="url(#lg-0.38853520840493516)" opacity="0.4" style="opacity:0.4;animation-play-state:running" ></path>
<path d="M 0 0 L 0 581.85 Q 136.4 541.014 272.8 522.598 T 545.6 503.375 T 818.4 468.623 T 1091.2 371.02 T 1364 282.65 L 1364 0 Z" fill="url(#lg-0.38853520840493516)" opacity="0.4" style="opacity:0.4;animation-play-state:running" ></path></g></svg>