<?xml version="1.0" encoding="utf-8"?><svg xmlns="http://www.w3.org/2000/svg" xmlns:xlink="http://www.w3.org/1999/xlink" width="1364" height="641" preserveAspectRatio="xMidYMid" viewBox="0 0 1364 641" style="z-index:1;margin-right:-2px;display:block;background-repeat-y:initial;background-repeat-x:initial;background-color:rgb(255, 255, 255);animation-play-state:paused" ><g transform="translate(682,320.5) scale(1,1) translate(-682,-320.5)" style="transform:matrix(1, 0, 0, 1, 0, 0);animation-play-state:paused" ><linearGradient id="lg-0.8977455271713324" x1="0" x2="1" y1="0" y2="0" style="animation-play-state:paused" ><stop stop-color="#ff00ff" offset="0" style="animation-play-state:paused" ></stop>

  
<stop stop-color="#00ffff" offset="1" style="animation-play-state:paused" ></stop></linearGradient>
<path d="M 0 0 L 0 638.822 Q 341 652.258 682 624.213 T 1364 537.049 L 1364 0 Z" fill="url(#lg-0.8977455271713324)" opacity="0.4" style="opacity:0.4;animation-play-state:paused" ></path>
<path d="M 0 0 L 0 579.942 Q 341 604.414 682 575.069 T 1364 619.621 L 1364 0 Z" fill="url(#lg-0.8977455271713324)" opacity="0.4" style="opacity:0.4;animation-play-state:paused" ></path>
<path d="M 0 0 L 0 545.954 Q 341 578.333 682 552.302 T 1364 541.313 L 1364 0 Z" fill="url(#lg-0.8977455271713324)" opacity="0.4" style="opacity:0.4;animation-play-state:paused" ></path>
<path d="M 0 0 L 0 533.551 Q 341 562.928 682 541.168 T 1364 595.441 L 1364 0 Z" fill="url(#lg-0.8977455271713324)" opacity="0.4" style="opacity:0.4;animation-play-state:paused" ></path>
<path d="M 0 0 L 0 599.459 Q 341 629.689 682 597.343 T 1364 577.251 L 1364 0 Z" fill="url(#lg-0.8977455271713324)" opacity="0.4" style="opacity:0.4;animation-play-state:paused" ></path></g></svg>