<?xml version="1.0" encoding="utf-8"?><svg xmlns="http://www.w3.org/2000/svg" xmlns:xlink="http://www.w3.org/1999/xlink" width="1364" height="697" preserveAspectRatio="xMidYMid" viewBox="0 0 1364 697" style="z-index:1;margin-right:-2px;display:block;background-repeat-y:initial;background-repeat-x:initial;background-color:rgb(255, 255, 255);animation-play-state:paused" ><g transform="translate(682,348.5) scale(1,1) translate(-682,-348.5)" style="transform:matrix(1, 0, 0, 1, 0, 0);animation-play-state:paused" ><linearGradient id="lg-0.4962275103089131" x1="0" x2="1" y1="0" y2="0" style="animation-play-state:paused" ><stop stop-color="#ff00ff" offset="0" style="animation-play-state:paused" ></stop>

  
<stop stop-color="#00ffff" offset="1" style="animation-play-state:paused" ></stop></linearGradient>
<path d="M 1303.2 349 C 1303.2 534.8 996.4 713.2 819.6 771 C 642.8 828.8 296.4 857.4 187.4 707.6 C 78.4 557.8 116.2 166.6 225.2 16.6 C 334.2 -133.4 663.8 -196.6 840.6 -139.6 C 1017.4 -82.6 1303.2 163.2 1303.2 349" fill="url(#lg-0.4962275103089131)" opacity="0.4" style="opacity:0.4;animation-play-state:paused" ></path>
<path d="M 1308 349 C 1308 515.2 963.8 677 805.6 728.6 C 647.4 780.2 314.8 820.2 217.4 685.8 C 120 551.4 106.8 136 204.2 1.6 C 301.6 -132.8 661.6 -127.8 819.8 -76.2 C 978 -24.6 1308 182.8 1308 349" fill="url(#lg-0.4962275103089131)" opacity="0.4" style="opacity:0.4;animation-play-state:paused" ></path>
<path d="M 1284.6 349 C 1284.6 528.4 1017.2 800.6 846.6 856.4 C 676 912.2 317.2 836 211.4 690.8 C 105.6 545.6 101.6 149 207.4 3.8 C 313.2 -141.4 670.8 -197.2 841.4 -141.4 C 1012 -85.6 1284.6 169.6 1284.6 349" fill="url(#lg-0.4962275103089131)" opacity="0.4" style="opacity:0.4;animation-play-state:paused" ></path>
<path d="M 1280.2 349 C 1280.2 517.6 989.8 750.8 829.8 803 C 669.8 855.2 367.4 785.2 268.6 649 C 169.8 512.8 173 186.8 271.8 50.6 C 370.6 -85.6 661.2 -132.8 821.2 -80.6 C 981.2 -28.4 1280.2 180.4 1280.2 349" fill="url(#lg-0.4962275103089131)" opacity="0.4" style="opacity:0.4;animation-play-state:paused" ></path>
<path d="M 1324 349 C 1324 531.2 991 709.8 817.8 766 C 644.6 822.2 364.2 805 257 657.4 C 149.8 509.8 70.2 129.4 177.4 -18.2 C 284.6 -165.8 652 -148 825.2 -91.8 C 998.4 -35.6 1324 166.8 1324 349" fill="url(#lg-0.4962275103089131)" opacity="0.4" style="opacity:0.4;animation-play-state:paused" ></path></g></svg>